<?xml version="1.0" encoding="UTF-8"?>
<svg xmlns="http://www.w3.org/2000/svg" xmlns:xlink="http://www.w3.org/1999/xlink" width="626.76pt" height="579.33pt" viewBox="0 0 626.76 579.33" version="1.2">
<defs>
<g>
<symbol overflow="visible" id="glyph0-0">
<path style="stroke:none;" d=""/>
</symbol>
<symbol overflow="visible" id="glyph0-1">
<path style="stroke:none;" d="M 5.328125 0 L 5.328125 -0.3125 C 4.8125 -0.3125 4.5625 -0.3125 4.546875 -0.609375 L 4.546875 -2.515625 C 4.546875 -3.359375 4.546875 -3.671875 4.234375 -4.03125 C 4.09375 -4.203125 3.765625 -4.40625 3.1875 -4.40625 C 2.359375 -4.40625 1.921875 -3.796875 1.765625 -3.4375 L 1.75 -3.4375 L 1.75 -6.90625 L 0.3125 -6.796875 L 0.3125 -6.484375 C 1.015625 -6.484375 1.09375 -6.421875 1.09375 -5.9375 L 1.09375 -0.75 C 1.09375 -0.3125 0.984375 -0.3125 0.3125 -0.3125 L 0.3125 0 L 1.4375 -0.03125 L 2.5625 0 L 2.5625 -0.3125 C 1.890625 -0.3125 1.78125 -0.3125 1.78125 -0.75 L 1.78125 -2.59375 C 1.78125 -3.625 2.484375 -4.1875 3.125 -4.1875 C 3.75 -4.1875 3.859375 -3.640625 3.859375 -3.078125 L 3.859375 -0.75 C 3.859375 -0.3125 3.75 -0.3125 3.078125 -0.3125 L 3.078125 0 L 4.203125 -0.03125 Z M 5.328125 0 "/>
</symbol>
<symbol overflow="visible" id="glyph0-2">
<path style="stroke:none;" d="M 4.125 -1.1875 C 4.125 -1.28125 4.046875 -1.296875 4 -1.296875 C 3.90625 -1.296875 3.890625 -1.25 3.875 -1.171875 C 3.515625 -0.140625 2.625 -0.140625 2.53125 -0.140625 C 2.03125 -0.140625 1.625 -0.4375 1.40625 -0.8125 C 1.109375 -1.28125 1.109375 -1.9375 1.109375 -2.296875 L 3.875 -2.296875 C 4.09375 -2.296875 4.125 -2.296875 4.125 -2.515625 C 4.125 -3.5 3.59375 -4.453125 2.34375 -4.453125 C 1.1875 -4.453125 0.28125 -3.4375 0.28125 -2.1875 C 0.28125 -0.859375 1.328125 0.109375 2.46875 0.109375 C 3.6875 0.109375 4.125 -1 4.125 -1.1875 Z M 3.46875 -2.515625 L 1.109375 -2.515625 C 1.171875 -3.984375 2.015625 -4.234375 2.34375 -4.234375 C 3.375 -4.234375 3.46875 -2.890625 3.46875 -2.515625 Z M 3.46875 -2.515625 "/>
</symbol>
<symbol overflow="visible" id="glyph0-3">
<path style="stroke:none;" d="M 3.296875 -1.234375 L 3.296875 -1.796875 L 3.0625 -1.796875 L 3.0625 -1.25 C 3.0625 -0.515625 2.75 -0.140625 2.390625 -0.140625 C 1.71875 -0.140625 1.71875 -1.046875 1.71875 -1.21875 L 1.71875 -3.984375 L 3.140625 -3.984375 L 3.140625 -4.296875 L 1.71875 -4.296875 L 1.71875 -6.125 L 1.46875 -6.125 C 1.46875 -5.3125 1.171875 -4.234375 0.1875 -4.203125 L 0.1875 -3.984375 L 1.03125 -3.984375 L 1.03125 -1.234375 C 1.03125 -0.015625 1.953125 0.109375 2.3125 0.109375 C 3.03125 0.109375 3.296875 -0.59375 3.296875 -1.234375 Z M 3.296875 -1.234375 "/>
</symbol>
<symbol overflow="visible" id="glyph0-4">
<path style="stroke:none;" d="M 3.625 -3.796875 C 3.625 -4.109375 3.3125 -4.40625 2.890625 -4.40625 C 2.15625 -4.40625 1.796875 -3.734375 1.65625 -3.296875 L 1.65625 -4.40625 L 0.28125 -4.296875 L 0.28125 -3.984375 C 0.96875 -3.984375 1.0625 -3.90625 1.0625 -3.421875 L 1.0625 -0.75 C 1.0625 -0.3125 0.953125 -0.3125 0.28125 -0.3125 L 0.28125 0 L 1.40625 -0.03125 C 1.8125 -0.03125 2.28125 -0.03125 2.671875 0 L 2.671875 -0.3125 L 2.46875 -0.3125 C 1.734375 -0.3125 1.71875 -0.421875 1.71875 -0.78125 L 1.71875 -2.3125 C 1.71875 -3.296875 2.125 -4.1875 2.890625 -4.1875 C 2.953125 -4.1875 2.96875 -4.1875 3 -4.171875 C 2.96875 -4.15625 2.765625 -4.046875 2.765625 -3.78125 C 2.765625 -3.5 2.96875 -3.359375 3.1875 -3.359375 C 3.375 -3.359375 3.625 -3.46875 3.625 -3.796875 Z M 3.625 -3.796875 "/>
</symbol>
<symbol overflow="visible" id="glyph0-5">
<path style="stroke:none;" d="M 4.6875 -2.125 C 4.6875 -3.40625 3.6875 -4.453125 2.484375 -4.453125 C 1.25 -4.453125 0.28125 -3.375 0.28125 -2.125 C 0.28125 -0.84375 1.3125 0.109375 2.484375 0.109375 C 3.6875 0.109375 4.6875 -0.859375 4.6875 -2.125 Z M 3.859375 -2.203125 C 3.859375 -1.84375 3.859375 -1.3125 3.640625 -0.875 C 3.421875 -0.421875 2.984375 -0.140625 2.484375 -0.140625 C 2.0625 -0.140625 1.625 -0.34375 1.359375 -0.8125 C 1.109375 -1.25 1.109375 -1.84375 1.109375 -2.203125 C 1.109375 -2.59375 1.109375 -3.140625 1.34375 -3.578125 C 1.609375 -4.03125 2.078125 -4.234375 2.484375 -4.234375 C 2.921875 -4.234375 3.34375 -4.015625 3.609375 -3.59375 C 3.859375 -3.171875 3.859375 -2.59375 3.859375 -2.203125 Z M 3.859375 -2.203125 "/>
</symbol>
<symbol overflow="visible" id="glyph0-6">
<path style="stroke:none;" d="M 2.453125 0 L 2.453125 -0.3125 C 1.796875 -0.3125 1.765625 -0.359375 1.765625 -0.75 L 1.765625 -4.40625 L 0.375 -4.296875 L 0.375 -3.984375 C 1.015625 -3.984375 1.109375 -3.921875 1.109375 -3.4375 L 1.109375 -0.75 C 1.109375 -0.3125 1 -0.3125 0.328125 -0.3125 L 0.328125 0 L 1.421875 -0.03125 C 1.765625 -0.03125 2.125 -0.015625 2.453125 0 Z M 1.90625 -6.015625 C 1.90625 -6.28125 1.6875 -6.546875 1.390625 -6.546875 C 1.046875 -6.546875 0.84375 -6.265625 0.84375 -6.015625 C 0.84375 -5.75 1.078125 -5.484375 1.375 -5.484375 C 1.71875 -5.484375 1.90625 -5.765625 1.90625 -6.015625 Z M 1.90625 -6.015625 "/>
</symbol>
<symbol overflow="visible" id="glyph0-7">
<path style="stroke:none;" d="M 4.125 -1.1875 C 4.125 -1.28125 4.03125 -1.28125 4 -1.28125 C 3.90625 -1.28125 3.890625 -1.25 3.875 -1.1875 C 3.578125 -0.265625 2.9375 -0.140625 2.5625 -0.140625 C 2.046875 -0.140625 1.171875 -0.5625 1.171875 -2.171875 C 1.171875 -3.796875 1.984375 -4.203125 2.515625 -4.203125 C 2.59375 -4.203125 3.21875 -4.203125 3.578125 -3.84375 C 3.171875 -3.8125 3.109375 -3.515625 3.109375 -3.390625 C 3.109375 -3.125 3.28125 -2.921875 3.5625 -2.921875 C 3.828125 -2.921875 4.015625 -3.09375 4.015625 -3.390625 C 4.015625 -4.078125 3.265625 -4.453125 2.5 -4.453125 C 1.25 -4.453125 0.34375 -3.390625 0.34375 -2.15625 C 0.34375 -0.875 1.328125 0.109375 2.484375 0.109375 C 3.8125 0.109375 4.125 -1.078125 4.125 -1.1875 Z M 4.125 -1.1875 "/>
</symbol>
<symbol overflow="visible" id="glyph0-8">
<path style="stroke:none;" d="M 6.8125 -4.5 L 6.625 -6.734375 L 0.546875 -6.734375 L 0.359375 -4.5 L 0.609375 -4.5 C 0.75 -6.09375 0.890625 -6.421875 2.40625 -6.421875 C 2.578125 -6.421875 2.84375 -6.421875 2.9375 -6.40625 C 3.140625 -6.375 3.140625 -6.265625 3.140625 -6.03125 L 3.140625 -0.78125 C 3.140625 -0.453125 3.140625 -0.3125 2.09375 -0.3125 L 1.703125 -0.3125 L 1.703125 0 C 2.109375 -0.03125 3.125 -0.03125 3.578125 -0.03125 C 4.046875 -0.03125 5.0625 -0.03125 5.46875 0 L 5.46875 -0.3125 L 5.078125 -0.3125 C 4.03125 -0.3125 4.03125 -0.453125 4.03125 -0.78125 L 4.03125 -6.03125 C 4.03125 -6.234375 4.03125 -6.375 4.203125 -6.40625 C 4.3125 -6.421875 4.59375 -6.421875 4.78125 -6.421875 C 6.28125 -6.421875 6.421875 -6.09375 6.5625 -4.5 Z M 6.8125 -4.5 "/>
</symbol>
<symbol overflow="visible" id="glyph0-9">
<path style="stroke:none;" d="M 5.0625 -3.984375 L 5.0625 -4.296875 C 4.828125 -4.265625 4.53125 -4.265625 4.3125 -4.265625 L 3.4375 -4.296875 L 3.4375 -3.984375 C 3.75 -3.96875 3.90625 -3.796875 3.90625 -3.546875 C 3.90625 -3.453125 3.90625 -3.4375 3.859375 -3.3125 L 2.84375 -0.859375 L 1.734375 -3.546875 C 1.703125 -3.640625 1.6875 -3.6875 1.6875 -3.71875 C 1.6875 -3.984375 2.046875 -3.984375 2.234375 -3.984375 L 2.234375 -4.296875 L 1.15625 -4.265625 C 0.890625 -4.265625 0.484375 -4.265625 0.1875 -4.296875 L 0.1875 -3.984375 C 0.671875 -3.984375 0.859375 -3.984375 1 -3.640625 L 2.484375 0 L 2.234375 0.59375 C 2.015625 1.140625 1.734375 1.828125 1.109375 1.828125 C 1.0625 1.828125 0.828125 1.828125 0.640625 1.640625 C 0.953125 1.609375 1.03125 1.390625 1.03125 1.21875 C 1.03125 0.96875 0.84375 0.8125 0.609375 0.8125 C 0.40625 0.8125 0.1875 0.9375 0.1875 1.234375 C 0.1875 1.6875 0.609375 2.046875 1.109375 2.046875 C 1.734375 2.046875 2.140625 1.46875 2.375 0.90625 L 4.125 -3.34375 C 4.390625 -3.96875 4.890625 -3.984375 5.0625 -3.984375 Z M 5.0625 -3.984375 "/>
</symbol>
<symbol overflow="visible" id="glyph0-10">
<path style="stroke:none;" d="M 5.1875 -2.15625 C 5.1875 -3.40625 4.21875 -4.40625 3.109375 -4.40625 C 2.328125 -4.40625 1.90625 -3.96875 1.71875 -3.75 L 1.71875 -4.40625 L 0.28125 -4.296875 L 0.28125 -3.984375 C 0.984375 -3.984375 1.0625 -3.921875 1.0625 -3.484375 L 1.0625 1.171875 C 1.0625 1.625 0.953125 1.625 0.28125 1.625 L 0.28125 1.9375 L 1.390625 1.90625 L 2.515625 1.9375 L 2.515625 1.625 C 1.84375 1.625 1.734375 1.625 1.734375 1.171875 L 1.734375 -0.59375 C 1.796875 -0.421875 2.203125 0.109375 2.96875 0.109375 C 4.15625 0.109375 5.1875 -0.859375 5.1875 -2.15625 Z M 4.359375 -2.15625 C 4.359375 -0.953125 3.65625 -0.109375 2.921875 -0.109375 C 2.53125 -0.109375 2.15625 -0.3125 1.875 -0.71875 C 1.734375 -0.921875 1.734375 -0.9375 1.734375 -1.140625 L 1.734375 -3.359375 C 2.03125 -3.859375 2.515625 -4.15625 3.03125 -4.15625 C 3.75 -4.15625 4.359375 -3.28125 4.359375 -2.15625 Z M 4.359375 -2.15625 "/>
</symbol>
<symbol overflow="visible" id="glyph0-11">
<path style="stroke:none;" d="M 3.3125 0 L 3.3125 -0.3125 L 3.0625 -0.3125 C 2.265625 -0.3125 2.234375 -0.421875 2.234375 -0.78125 L 2.234375 -6.015625 C 2.234375 -6.375 2.265625 -6.484375 3.0625 -6.484375 L 3.3125 -6.484375 L 3.3125 -6.796875 C 2.96875 -6.765625 2.1875 -6.765625 1.796875 -6.765625 C 1.40625 -6.765625 0.625 -6.765625 0.28125 -6.796875 L 0.28125 -6.484375 L 0.53125 -6.484375 C 1.328125 -6.484375 1.359375 -6.375 1.359375 -6.015625 L 1.359375 -0.78125 C 1.359375 -0.421875 1.328125 -0.3125 0.53125 -0.3125 L 0.28125 -0.3125 L 0.28125 0 C 0.625 -0.03125 1.40625 -0.03125 1.796875 -0.03125 C 2.1875 -0.03125 2.96875 -0.03125 3.3125 0 Z M 3.3125 0 "/>
</symbol>
<symbol overflow="visible" id="glyph0-12">
<path style="stroke:none;" d="M 7.140625 0 L 7.140625 -0.3125 L 6.953125 -0.3125 C 6.359375 -0.3125 6.21875 -0.375 6.109375 -0.703125 L 3.96875 -6.921875 C 3.90625 -7.0625 3.890625 -7.125 3.734375 -7.125 C 3.578125 -7.125 3.546875 -7.0625 3.5 -6.921875 L 1.4375 -0.96875 C 1.25 -0.46875 0.859375 -0.3125 0.3125 -0.3125 L 0.3125 0 L 1.328125 -0.03125 L 2.484375 0 L 2.484375 -0.3125 C 1.984375 -0.3125 1.734375 -0.5625 1.734375 -0.8125 C 1.734375 -0.84375 1.734375 -0.953125 1.75 -0.96875 L 2.203125 -2.265625 L 4.671875 -2.265625 L 5.203125 -0.75 C 5.203125 -0.703125 5.21875 -0.640625 5.21875 -0.609375 C 5.21875 -0.3125 4.671875 -0.3125 4.40625 -0.3125 L 4.40625 0 C 4.75 -0.03125 5.453125 -0.03125 5.828125 -0.03125 Z M 4.5625 -2.578125 L 2.3125 -2.578125 L 3.4375 -5.8125 Z M 4.5625 -2.578125 "/>
</symbol>
<symbol overflow="visible" id="glyph0-13">
<path style="stroke:none;" d="M 6.484375 -1.828125 C 6.484375 -2.6875 5.65625 -3.4375 4.5625 -3.546875 C 5.53125 -3.75 6.203125 -4.375 6.203125 -5.109375 C 6.203125 -5.984375 5.296875 -6.796875 4 -6.796875 L 0.359375 -6.796875 L 0.359375 -6.484375 L 0.59375 -6.484375 C 1.359375 -6.484375 1.390625 -6.375 1.390625 -6.015625 L 1.390625 -0.78125 C 1.390625 -0.421875 1.359375 -0.3125 0.59375 -0.3125 L 0.359375 -0.3125 L 0.359375 0 L 4.265625 0 C 5.578125 0 6.484375 -0.890625 6.484375 -1.828125 Z M 5.25 -5.109375 C 5.25 -4.484375 4.75 -3.640625 3.65625 -3.640625 L 2.203125 -3.640625 L 2.203125 -6.09375 C 2.203125 -6.421875 2.234375 -6.484375 2.703125 -6.484375 L 3.9375 -6.484375 C 4.890625 -6.484375 5.25 -5.640625 5.25 -5.109375 Z M 5.484375 -1.828125 C 5.484375 -1.125 4.96875 -0.3125 3.9375 -0.3125 L 2.703125 -0.3125 C 2.234375 -0.3125 2.203125 -0.375 2.203125 -0.703125 L 2.203125 -3.421875 L 4.078125 -3.421875 C 5.0625 -3.421875 5.484375 -2.5 5.484375 -1.828125 Z M 5.484375 -1.828125 "/>
</symbol>
<symbol overflow="visible" id="glyph0-14">
<path style="stroke:none;" d="M 8.09375 0 L 8.09375 -0.3125 C 7.578125 -0.3125 7.328125 -0.3125 7.3125 -0.609375 L 7.3125 -2.515625 C 7.3125 -3.359375 7.3125 -3.671875 7 -4.03125 C 6.875 -4.203125 6.546875 -4.40625 5.96875 -4.40625 C 5.125 -4.40625 4.6875 -3.796875 4.515625 -3.421875 C 4.375 -4.296875 3.640625 -4.40625 3.1875 -4.40625 C 2.46875 -4.40625 2 -3.96875 1.71875 -3.359375 L 1.71875 -4.40625 L 0.3125 -4.296875 L 0.3125 -3.984375 C 1.015625 -3.984375 1.09375 -3.90625 1.09375 -3.421875 L 1.09375 -0.75 C 1.09375 -0.3125 0.984375 -0.3125 0.3125 -0.3125 L 0.3125 0 L 1.4375 -0.03125 L 2.5625 0 L 2.5625 -0.3125 C 1.890625 -0.3125 1.78125 -0.3125 1.78125 -0.75 L 1.78125 -2.59375 C 1.78125 -3.625 2.484375 -4.1875 3.125 -4.1875 C 3.75 -4.1875 3.859375 -3.640625 3.859375 -3.078125 L 3.859375 -0.75 C 3.859375 -0.3125 3.75 -0.3125 3.078125 -0.3125 L 3.078125 0 L 4.203125 -0.03125 L 5.328125 0 L 5.328125 -0.3125 C 4.65625 -0.3125 4.546875 -0.3125 4.546875 -0.75 L 4.546875 -2.59375 C 4.546875 -3.625 5.25 -4.1875 5.890625 -4.1875 C 6.515625 -4.1875 6.625 -3.640625 6.625 -3.078125 L 6.625 -0.75 C 6.625 -0.3125 6.515625 -0.3125 5.859375 -0.3125 L 5.859375 0 L 6.984375 -0.03125 Z M 8.09375 0 "/>
</symbol>
<symbol overflow="visible" id="glyph0-15">
<path style="stroke:none;" d="M 4.8125 -0.890625 L 4.8125 -1.4375 L 4.5625 -1.4375 L 4.5625 -0.890625 C 4.5625 -0.3125 4.3125 -0.25 4.203125 -0.25 C 3.875 -0.25 3.828125 -0.703125 3.828125 -0.75 L 3.828125 -2.734375 C 3.828125 -3.15625 3.828125 -3.546875 3.46875 -3.90625 C 3.078125 -4.296875 2.59375 -4.453125 2.109375 -4.453125 C 1.296875 -4.453125 0.609375 -3.984375 0.609375 -3.328125 C 0.609375 -3.03125 0.8125 -2.859375 1.0625 -2.859375 C 1.34375 -2.859375 1.515625 -3.0625 1.515625 -3.328125 C 1.515625 -3.4375 1.46875 -3.765625 1.015625 -3.78125 C 1.28125 -4.125 1.765625 -4.234375 2.09375 -4.234375 C 2.578125 -4.234375 3.140625 -3.859375 3.140625 -2.96875 L 3.140625 -2.59375 C 2.640625 -2.5625 1.9375 -2.53125 1.3125 -2.234375 C 0.5625 -1.90625 0.3125 -1.390625 0.3125 -0.953125 C 0.3125 -0.140625 1.28125 0.109375 1.90625 0.109375 C 2.5625 0.109375 3.03125 -0.28125 3.21875 -0.75 C 3.25 -0.359375 3.515625 0.0625 3.984375 0.0625 C 4.203125 0.0625 4.8125 -0.078125 4.8125 -0.890625 Z M 3.140625 -1.390625 C 3.140625 -0.453125 2.421875 -0.109375 1.984375 -0.109375 C 1.5 -0.109375 1.078125 -0.453125 1.078125 -0.953125 C 1.078125 -1.5 1.5 -2.328125 3.140625 -2.390625 Z M 3.140625 -1.390625 "/>
</symbol>
<symbol overflow="visible" id="glyph0-16">
<path style="stroke:none;" d="M 2.75 -1.859375 L 2.75 -2.4375 L 0.109375 -2.4375 L 0.109375 -1.859375 Z M 2.75 -1.859375 "/>
</symbol>
<symbol overflow="visible" id="glyph0-17">
<path style="stroke:none;" d="M 5.25 0 L 5.25 -0.3125 C 4.578125 -0.3125 4.46875 -0.3125 4.46875 -0.75 L 4.46875 -4.40625 L 3.21875 -4.3125 C 3.0625 -4.3125 3.03125 -4.296875 3.03125 -4.296875 C 3.015625 -4.296875 3 -4.296875 2.859375 -4.296875 L 1.6875 -4.296875 L 1.6875 -5.421875 C 1.6875 -6.40625 2.53125 -6.796875 3.15625 -6.796875 C 3.453125 -6.796875 3.8125 -6.703125 4.015625 -6.46875 C 3.609375 -6.453125 3.546875 -6.171875 3.546875 -6.015625 C 3.546875 -5.6875 3.796875 -5.546875 3.984375 -5.546875 C 4.21875 -5.546875 4.453125 -5.71875 4.453125 -6.015625 C 4.453125 -6.59375 3.90625 -7.015625 3.171875 -7.015625 C 2.234375 -7.015625 1.0625 -6.515625 1.0625 -5.421875 L 1.0625 -4.296875 L 0.265625 -4.296875 L 0.265625 -3.984375 L 1.0625 -3.984375 L 1.0625 -0.75 C 1.0625 -0.3125 0.953125 -0.3125 0.28125 -0.3125 L 0.28125 0 L 1.390625 -0.03125 L 2.484375 0 L 2.484375 -0.3125 C 1.828125 -0.3125 1.71875 -0.3125 1.71875 -0.75 L 1.71875 -3.984375 L 3.28125 -3.984375 C 3.75 -3.984375 3.8125 -3.859375 3.8125 -3.4375 L 3.8125 -0.75 C 3.8125 -0.3125 3.703125 -0.3125 3.03125 -0.3125 L 3.03125 0 L 4.140625 -0.03125 Z M 5.25 0 "/>
</symbol>
<symbol overflow="visible" id="glyph0-18">
<path style="stroke:none;" d="M 5.328125 0 L 5.328125 -0.3125 C 4.8125 -0.3125 4.5625 -0.3125 4.546875 -0.609375 L 4.546875 -2.515625 C 4.546875 -3.359375 4.546875 -3.671875 4.234375 -4.03125 C 4.09375 -4.203125 3.765625 -4.40625 3.1875 -4.40625 C 2.46875 -4.40625 2 -3.96875 1.71875 -3.359375 L 1.71875 -4.40625 L 0.3125 -4.296875 L 0.3125 -3.984375 C 1.015625 -3.984375 1.09375 -3.90625 1.09375 -3.421875 L 1.09375 -0.75 C 1.09375 -0.3125 0.984375 -0.3125 0.3125 -0.3125 L 0.3125 0 L 1.4375 -0.03125 L 2.5625 0 L 2.5625 -0.3125 C 1.890625 -0.3125 1.78125 -0.3125 1.78125 -0.75 L 1.78125 -2.59375 C 1.78125 -3.625 2.484375 -4.1875 3.125 -4.1875 C 3.75 -4.1875 3.859375 -3.640625 3.859375 -3.078125 L 3.859375 -0.75 C 3.859375 -0.3125 3.75 -0.3125 3.078125 -0.3125 L 3.078125 0 L 4.203125 -0.03125 Z M 5.328125 0 "/>
</symbol>
<symbol overflow="visible" id="glyph0-19">
<path style="stroke:none;" d="M 8.75 0 L 8.75 -0.3125 L 8.515625 -0.3125 C 7.75 -0.3125 7.71875 -0.421875 7.71875 -0.78125 L 7.71875 -6.015625 C 7.71875 -6.375 7.75 -6.484375 8.515625 -6.484375 L 8.75 -6.484375 L 8.75 -6.796875 L 7.0625 -6.796875 C 6.8125 -6.796875 6.8125 -6.78125 6.734375 -6.609375 L 4.5625 -1 L 2.40625 -6.578125 C 2.3125 -6.796875 2.28125 -6.796875 2.046875 -6.796875 L 0.375 -6.796875 L 0.375 -6.484375 L 0.609375 -6.484375 C 1.375 -6.484375 1.390625 -6.375 1.390625 -6.015625 L 1.390625 -1.046875 C 1.390625 -0.78125 1.390625 -0.3125 0.375 -0.3125 L 0.375 0 L 1.53125 -0.03125 L 2.703125 0 L 2.703125 -0.3125 C 1.671875 -0.3125 1.671875 -0.78125 1.671875 -1.046875 L 1.671875 -6.40625 L 1.6875 -6.40625 L 4.078125 -0.21875 C 4.125 -0.09375 4.1875 0 4.28125 0 C 4.390625 0 4.421875 -0.078125 4.453125 -0.1875 L 6.90625 -6.484375 L 6.921875 -6.484375 L 6.921875 -0.78125 C 6.921875 -0.421875 6.890625 -0.3125 6.125 -0.3125 L 5.890625 -0.3125 L 5.890625 0 C 6.265625 -0.03125 6.9375 -0.03125 7.328125 -0.03125 C 7.71875 -0.03125 8.375 -0.03125 8.75 0 Z M 8.75 0 "/>
</symbol>
<symbol overflow="visible" id="glyph0-20">
<path style="stroke:none;" d="M 5.25 0 L 5.25 -0.3125 C 4.546875 -0.3125 4.46875 -0.375 4.46875 -0.859375 L 4.46875 -6.90625 L 3.03125 -6.796875 L 3.03125 -6.484375 C 3.734375 -6.484375 3.8125 -6.421875 3.8125 -5.9375 L 3.8125 -3.78125 C 3.515625 -4.140625 3.09375 -4.40625 2.5625 -4.40625 C 1.390625 -4.40625 0.34375 -3.421875 0.34375 -2.140625 C 0.34375 -0.875 1.3125 0.109375 2.453125 0.109375 C 3.078125 0.109375 3.53125 -0.234375 3.78125 -0.546875 L 3.78125 0.109375 Z M 3.78125 -1.171875 C 3.78125 -1 3.78125 -0.96875 3.671875 -0.8125 C 3.375 -0.328125 2.921875 -0.109375 2.5 -0.109375 C 2.046875 -0.109375 1.6875 -0.375 1.453125 -0.75 C 1.1875 -1.15625 1.171875 -1.71875 1.171875 -2.125 C 1.171875 -2.5 1.1875 -3.09375 1.46875 -3.546875 C 1.6875 -3.859375 2.0625 -4.1875 2.59375 -4.1875 C 2.953125 -4.1875 3.359375 -4.03125 3.671875 -3.578125 C 3.78125 -3.40625 3.78125 -3.390625 3.78125 -3.21875 Z M 3.78125 -1.171875 "/>
</symbol>
<symbol overflow="visible" id="glyph0-21">
<path style="stroke:none;" d="M 5.328125 0 L 5.328125 -0.3125 C 4.625 -0.3125 4.546875 -0.375 4.546875 -0.859375 L 4.546875 -4.40625 L 3.078125 -4.296875 L 3.078125 -3.984375 C 3.78125 -3.984375 3.859375 -3.90625 3.859375 -3.421875 L 3.859375 -1.65625 C 3.859375 -0.78125 3.390625 -0.109375 2.65625 -0.109375 C 1.828125 -0.109375 1.78125 -0.578125 1.78125 -1.09375 L 1.78125 -4.40625 L 0.3125 -4.296875 L 0.3125 -3.984375 C 1.09375 -3.984375 1.09375 -3.953125 1.09375 -3.0625 L 1.09375 -1.578125 C 1.09375 -0.796875 1.09375 0.109375 2.609375 0.109375 C 3.171875 0.109375 3.609375 -0.171875 3.890625 -0.78125 L 3.890625 0.109375 Z M 5.328125 0 "/>
</symbol>
<symbol overflow="visible" id="glyph0-22">
<path style="stroke:none;" d="M 2.53125 0 L 2.53125 -0.3125 C 1.875 -0.3125 1.765625 -0.3125 1.765625 -0.75 L 1.765625 -6.90625 L 0.328125 -6.796875 L 0.328125 -6.484375 C 1.03125 -6.484375 1.109375 -6.421875 1.109375 -5.9375 L 1.109375 -0.75 C 1.109375 -0.3125 1 -0.3125 0.328125 -0.3125 L 0.328125 0 L 1.4375 -0.03125 Z M 2.53125 0 "/>
</symbol>
<symbol overflow="visible" id="glyph0-23">
<path style="stroke:none;" d="M 3.546875 -6.3125 C 3.546875 -6.6875 3.1875 -7.015625 2.65625 -7.015625 C 1.953125 -7.015625 1.109375 -6.484375 1.109375 -5.4375 L 1.109375 -4.296875 L 0.328125 -4.296875 L 0.328125 -3.984375 L 1.109375 -3.984375 L 1.109375 -0.75 C 1.109375 -0.3125 1 -0.3125 0.34375 -0.3125 L 0.34375 0 L 1.46875 -0.03125 C 1.875 -0.03125 2.34375 -0.03125 2.734375 0 L 2.734375 -0.3125 L 2.53125 -0.3125 C 1.796875 -0.3125 1.765625 -0.421875 1.765625 -0.78125 L 1.765625 -3.984375 L 2.90625 -3.984375 L 2.90625 -4.296875 L 1.734375 -4.296875 L 1.734375 -5.4375 C 1.734375 -6.3125 2.21875 -6.796875 2.65625 -6.796875 C 2.6875 -6.796875 2.84375 -6.796875 2.984375 -6.734375 C 2.859375 -6.6875 2.6875 -6.5625 2.6875 -6.3125 C 2.6875 -6.078125 2.84375 -5.875 3.109375 -5.875 C 3.40625 -5.875 3.546875 -6.078125 3.546875 -6.3125 Z M 3.546875 -6.3125 "/>
</symbol>
<symbol overflow="visible" id="glyph0-24">
<path style="stroke:none;" d="M 4.96875 -1.84375 C 4.96875 -2.84375 4.3125 -3.65625 3.46875 -3.859375 L 2.203125 -4.171875 C 1.578125 -4.3125 1.1875 -4.859375 1.1875 -5.4375 C 1.1875 -6.125 1.734375 -6.734375 2.515625 -6.734375 C 4.171875 -6.734375 4.390625 -5.109375 4.453125 -4.65625 C 4.453125 -4.59375 4.453125 -4.53125 4.5625 -4.53125 C 4.703125 -4.53125 4.703125 -4.59375 4.703125 -4.78125 L 4.703125 -6.78125 C 4.703125 -6.953125 4.703125 -7.015625 4.59375 -7.015625 C 4.515625 -7.015625 4.515625 -7 4.4375 -6.890625 L 4.09375 -6.3125 C 3.796875 -6.609375 3.390625 -7.015625 2.5 -7.015625 C 1.390625 -7.015625 0.5625 -6.140625 0.5625 -5.09375 C 0.5625 -4.265625 1.078125 -3.53125 1.859375 -3.265625 C 1.96875 -3.21875 2.484375 -3.109375 3.171875 -2.9375 C 3.4375 -2.859375 3.75 -2.796875 4.015625 -2.421875 C 4.234375 -2.171875 4.328125 -1.84375 4.328125 -1.515625 C 4.328125 -0.8125 3.828125 -0.09375 3 -0.09375 C 2.703125 -0.09375 1.953125 -0.140625 1.421875 -0.625 C 0.84375 -1.171875 0.8125 -1.796875 0.8125 -2.15625 C 0.796875 -2.265625 0.71875 -2.265625 0.6875 -2.265625 C 0.5625 -2.265625 0.5625 -2.1875 0.5625 -2.015625 L 0.5625 -0.015625 C 0.5625 0.15625 0.5625 0.21875 0.671875 0.21875 C 0.734375 0.21875 0.75 0.203125 0.8125 0.09375 C 0.8125 0.09375 0.84375 0.046875 1.171875 -0.484375 C 1.484375 -0.140625 2.125 0.21875 3 0.21875 C 4.171875 0.21875 4.96875 -0.75 4.96875 -1.84375 Z M 4.96875 -1.84375 "/>
</symbol>
<symbol overflow="visible" id="glyph0-25">
<path style="stroke:none;" d="M 3.578125 -1.28125 C 3.578125 -1.796875 3.28125 -2.09375 3.171875 -2.21875 C 2.84375 -2.53125 2.453125 -2.625 2.03125 -2.703125 C 1.46875 -2.8125 0.8125 -2.9375 0.8125 -3.515625 C 0.8125 -3.859375 1.0625 -4.265625 1.921875 -4.265625 C 3.015625 -4.265625 3.0625 -3.375 3.078125 -3.0625 C 3.09375 -2.96875 3.203125 -2.96875 3.203125 -2.96875 C 3.328125 -2.96875 3.328125 -3.03125 3.328125 -3.21875 L 3.328125 -4.21875 C 3.328125 -4.390625 3.328125 -4.453125 3.21875 -4.453125 C 3.171875 -4.453125 3.15625 -4.453125 3.03125 -4.34375 C 3 -4.296875 2.890625 -4.203125 2.859375 -4.1875 C 2.484375 -4.453125 2.0625 -4.453125 1.921875 -4.453125 C 0.703125 -4.453125 0.328125 -3.796875 0.328125 -3.234375 C 0.328125 -2.890625 0.484375 -2.609375 0.75 -2.390625 C 1.078125 -2.125 1.359375 -2.0625 2.0625 -1.9375 C 2.296875 -1.890625 3.109375 -1.734375 3.109375 -1.015625 C 3.109375 -0.5 2.75 -0.109375 1.984375 -0.109375 C 1.140625 -0.109375 0.78125 -0.671875 0.59375 -1.515625 C 0.5625 -1.65625 0.5625 -1.6875 0.453125 -1.6875 C 0.328125 -1.6875 0.328125 -1.625 0.328125 -1.4375 L 0.328125 -0.125 C 0.328125 0.046875 0.328125 0.109375 0.4375 0.109375 C 0.484375 0.109375 0.5 0.09375 0.6875 -0.09375 C 0.703125 -0.109375 0.703125 -0.125 0.890625 -0.3125 C 1.328125 0.09375 1.765625 0.109375 1.984375 0.109375 C 3.125 0.109375 3.578125 -0.5625 3.578125 -1.28125 Z M 3.578125 -1.28125 "/>
</symbol>
<symbol overflow="visible" id="glyph1-0">
<path style="stroke:none;" d=""/>
</symbol>
<symbol overflow="visible" id="glyph1-1">
<path style="stroke:none;" d="M 6.421875 -6.921875 C 6.421875 -6.953125 6.40625 -7.015625 6.3125 -7.015625 C 6.265625 -7.015625 6.25 -7 6.125 -6.875 L 5.65625 -6.296875 C 5.390625 -6.765625 4.875 -7.015625 4.234375 -7.015625 C 2.96875 -7.015625 1.765625 -5.875 1.765625 -4.671875 C 1.765625 -3.859375 2.296875 -3.40625 2.8125 -3.25 L 3.875 -2.96875 C 4.234375 -2.890625 4.78125 -2.734375 4.78125 -1.921875 C 4.78125 -1.03125 3.96875 -0.09375 3 -0.09375 C 2.359375 -0.09375 1.25 -0.3125 1.25 -1.546875 C 1.25 -1.78125 1.296875 -2.015625 1.3125 -2.078125 C 1.328125 -2.125 1.328125 -2.125 1.328125 -2.15625 C 1.328125 -2.25 1.265625 -2.265625 1.21875 -2.265625 C 1.171875 -2.265625 1.140625 -2.25 1.109375 -2.21875 C 1.078125 -2.1875 0.515625 0.09375 0.515625 0.125 C 0.515625 0.171875 0.5625 0.21875 0.625 0.21875 C 0.671875 0.21875 0.6875 0.203125 0.8125 0.0625 L 1.296875 -0.5 C 1.71875 0.078125 2.40625 0.21875 2.96875 0.21875 C 4.328125 0.21875 5.5 -1.109375 5.5 -2.34375 C 5.5 -3.03125 5.171875 -3.359375 5.015625 -3.5 C 4.78125 -3.734375 4.640625 -3.765625 3.75 -4 C 3.53125 -4.0625 3.171875 -4.15625 3.078125 -4.1875 C 2.8125 -4.265625 2.484375 -4.5625 2.484375 -5.09375 C 2.484375 -5.890625 3.28125 -6.734375 4.21875 -6.734375 C 5.046875 -6.734375 5.65625 -6.3125 5.65625 -5.203125 C 5.65625 -4.875 5.609375 -4.703125 5.609375 -4.640625 C 5.609375 -4.625 5.609375 -4.53125 5.734375 -4.53125 C 5.828125 -4.53125 5.84375 -4.5625 5.875 -4.734375 Z M 6.421875 -6.921875 "/>
</symbol>
<symbol overflow="visible" id="glyph1-2">
<path style="stroke:none;" d="M 7.359375 -4.34375 C 7.359375 -5.9375 6.3125 -7.015625 4.828125 -7.015625 C 2.671875 -7.015625 0.484375 -4.75 0.484375 -2.4375 C 0.484375 -0.78125 1.609375 0.21875 3.03125 0.21875 C 5.140625 0.21875 7.359375 -1.953125 7.359375 -4.34375 Z M 3.09375 -0.046875 C 2.109375 -0.046875 1.40625 -0.84375 1.40625 -2.15625 C 1.40625 -2.59375 1.546875 -4.046875 2.3125 -5.21875 C 3 -6.25 3.984375 -6.765625 4.765625 -6.765625 C 5.578125 -6.765625 6.484375 -6.203125 6.484375 -4.734375 C 6.484375 -4.015625 6.203125 -2.453125 5.21875 -1.234375 C 4.75 -0.625 3.9375 -0.046875 3.09375 -0.046875 Z M 3.09375 -0.046875 "/>
</symbol>
<symbol overflow="visible" id="glyph1-3">
<path style="stroke:none;" d="M 7.046875 -2.3125 C 7.0625 -2.375 7.09375 -2.4375 7.09375 -2.453125 C 7.09375 -2.46875 7.09375 -2.5625 6.984375 -2.5625 C 6.890625 -2.5625 6.875 -2.515625 6.84375 -2.453125 C 6.203125 -0.96875 5.828125 -0.3125 4.125 -0.3125 L 2.671875 -0.3125 C 2.53125 -0.3125 2.515625 -0.3125 2.453125 -0.3125 C 2.359375 -0.328125 2.328125 -0.34375 2.328125 -0.421875 C 2.328125 -0.453125 2.328125 -0.46875 2.375 -0.640625 L 3.0625 -3.359375 L 4.046875 -3.359375 C 4.890625 -3.359375 4.890625 -3.15625 4.890625 -2.90625 C 4.890625 -2.84375 4.890625 -2.71875 4.8125 -2.421875 C 4.796875 -2.375 4.78125 -2.34375 4.78125 -2.3125 C 4.78125 -2.265625 4.828125 -2.203125 4.921875 -2.203125 C 5 -2.203125 5.03125 -2.25 5.0625 -2.40625 L 5.640625 -4.734375 C 5.640625 -4.78125 5.578125 -4.84375 5.515625 -4.84375 C 5.421875 -4.84375 5.40625 -4.78125 5.375 -4.65625 C 5.171875 -3.90625 4.984375 -3.671875 4.078125 -3.671875 L 3.140625 -3.671875 L 3.734375 -6.078125 C 3.828125 -6.421875 3.828125 -6.453125 4.265625 -6.453125 L 5.671875 -6.453125 C 6.890625 -6.453125 7.1875 -6.171875 7.1875 -5.359375 C 7.1875 -5.109375 7.1875 -5.09375 7.140625 -4.828125 C 7.140625 -4.765625 7.140625 -4.703125 7.140625 -4.640625 C 7.140625 -4.59375 7.171875 -4.53125 7.25 -4.53125 C 7.359375 -4.53125 7.375 -4.59375 7.390625 -4.78125 L 7.59375 -6.5 C 7.625 -6.765625 7.578125 -6.765625 7.328125 -6.765625 L 2.296875 -6.765625 C 2.09375 -6.765625 2 -6.765625 2 -6.5625 C 2 -6.453125 2.09375 -6.453125 2.28125 -6.453125 C 2.640625 -6.453125 2.921875 -6.453125 2.921875 -6.28125 C 2.921875 -6.234375 2.921875 -6.21875 2.875 -6.046875 L 1.5625 -0.78125 C 1.46875 -0.390625 1.4375 -0.3125 0.65625 -0.3125 C 0.484375 -0.3125 0.375 -0.3125 0.375 -0.125 C 0.375 0 0.46875 0 0.65625 0 L 5.828125 0 C 6.046875 0 6.0625 -0.015625 6.125 -0.171875 Z M 7.046875 -2.3125 "/>
</symbol>
<symbol overflow="visible" id="glyph2-0">
<path style="stroke:none;" d=""/>
</symbol>
<symbol overflow="visible" id="glyph2-1">
<path style="stroke:none;" d="M 3.296875 2.390625 C 3.296875 2.359375 3.296875 2.34375 3.125 2.171875 C 1.875 0.921875 1.5625 -0.96875 1.5625 -2.484375 C 1.5625 -4.21875 1.9375 -5.953125 3.171875 -7.203125 C 3.296875 -7.3125 3.296875 -7.328125 3.296875 -7.359375 C 3.296875 -7.4375 3.25 -7.46875 3.1875 -7.46875 C 3.09375 -7.46875 2.203125 -6.78125 1.609375 -5.53125 C 1.109375 -4.421875 0.984375 -3.328125 0.984375 -2.484375 C 0.984375 -1.71875 1.09375 -0.5 1.640625 0.609375 C 2.234375 1.84375 3.09375 2.484375 3.1875 2.484375 C 3.25 2.484375 3.296875 2.453125 3.296875 2.390625 Z M 3.296875 2.390625 "/>
</symbol>
<symbol overflow="visible" id="glyph2-2">
<path style="stroke:none;" d="M 2.890625 -3.5 C 3.703125 -3.765625 4.28125 -4.46875 4.28125 -5.25 C 4.28125 -6.078125 3.40625 -6.625 2.453125 -6.625 C 1.4375 -6.625 0.6875 -6.03125 0.6875 -5.28125 C 0.6875 -4.953125 0.90625 -4.75 1.1875 -4.75 C 1.5 -4.75 1.703125 -4.96875 1.703125 -5.265625 C 1.703125 -5.765625 1.234375 -5.765625 1.078125 -5.765625 C 1.390625 -6.25 2.046875 -6.375 2.40625 -6.375 C 2.8125 -6.375 3.359375 -6.15625 3.359375 -5.265625 C 3.359375 -5.140625 3.34375 -4.5625 3.078125 -4.125 C 2.78125 -3.65625 2.453125 -3.625 2.203125 -3.609375 C 2.125 -3.609375 1.875 -3.578125 1.8125 -3.578125 C 1.734375 -3.578125 1.65625 -3.5625 1.65625 -3.46875 C 1.65625 -3.359375 1.734375 -3.359375 1.90625 -3.359375 L 2.34375 -3.359375 C 3.15625 -3.359375 3.515625 -2.671875 3.515625 -1.703125 C 3.515625 -0.34375 2.84375 -0.0625 2.40625 -0.0625 C 1.96875 -0.0625 1.21875 -0.234375 0.875 -0.8125 C 1.21875 -0.765625 1.53125 -0.984375 1.53125 -1.359375 C 1.53125 -1.71875 1.265625 -1.921875 0.96875 -1.921875 C 0.734375 -1.921875 0.421875 -1.78125 0.421875 -1.34375 C 0.421875 -0.4375 1.34375 0.21875 2.421875 0.21875 C 3.640625 0.21875 4.546875 -0.6875 4.546875 -1.703125 C 4.546875 -2.515625 3.921875 -3.296875 2.890625 -3.5 Z M 2.890625 -3.5 "/>
</symbol>
<symbol overflow="visible" id="glyph2-3">
<path style="stroke:none;" d="M 1.265625 -0.765625 L 2.3125 -1.796875 C 3.875 -3.171875 4.46875 -3.703125 4.46875 -4.703125 C 4.46875 -5.828125 3.578125 -6.625 2.359375 -6.625 C 1.234375 -6.625 0.5 -5.71875 0.5 -4.828125 C 0.5 -4.265625 1 -4.265625 1.03125 -4.265625 C 1.1875 -4.265625 1.546875 -4.390625 1.546875 -4.796875 C 1.546875 -5.0625 1.359375 -5.3125 1.015625 -5.3125 C 0.9375 -5.3125 0.921875 -5.3125 0.890625 -5.3125 C 1.109375 -5.953125 1.65625 -6.3125 2.234375 -6.3125 C 3.140625 -6.3125 3.5625 -5.515625 3.5625 -4.703125 C 3.5625 -3.90625 3.0625 -3.109375 2.515625 -2.5 L 0.609375 -0.375 C 0.5 -0.265625 0.5 -0.234375 0.5 0 L 4.1875 0 L 4.46875 -1.734375 L 4.21875 -1.734375 C 4.171875 -1.4375 4.09375 -1 4 -0.84375 C 3.9375 -0.765625 3.28125 -0.765625 3.0625 -0.765625 Z M 1.265625 -0.765625 "/>
</symbol>
<symbol overflow="visible" id="glyph2-4">
<path style="stroke:none;" d="M 2.875 -2.484375 C 2.875 -3.265625 2.765625 -4.46875 2.21875 -5.59375 C 1.625 -6.8125 0.765625 -7.46875 0.671875 -7.46875 C 0.609375 -7.46875 0.5625 -7.421875 0.5625 -7.359375 C 0.5625 -7.328125 0.5625 -7.3125 0.75 -7.140625 C 1.734375 -6.15625 2.296875 -4.5625 2.296875 -2.484375 C 2.296875 -0.78125 1.9375 0.96875 0.703125 2.21875 C 0.5625 2.34375 0.5625 2.359375 0.5625 2.390625 C 0.5625 2.453125 0.609375 2.484375 0.671875 2.484375 C 0.765625 2.484375 1.65625 1.8125 2.25 0.546875 C 2.75 -0.546875 2.875 -1.65625 2.875 -2.484375 Z M 2.875 -2.484375 "/>
</symbol>
<symbol overflow="visible" id="glyph2-5">
<path style="stroke:none;" d="M 1.625 -4.546875 C 1.171875 -4.84375 1.125 -5.1875 1.125 -5.359375 C 1.125 -5.96875 1.765625 -6.375 2.484375 -6.375 C 3.203125 -6.375 3.84375 -5.859375 3.84375 -5.140625 C 3.84375 -4.578125 3.453125 -4.09375 2.859375 -3.75 Z M 3.078125 -3.609375 C 3.796875 -3.96875 4.28125 -4.484375 4.28125 -5.140625 C 4.28125 -6.0625 3.390625 -6.625 2.484375 -6.625 C 1.5 -6.625 0.6875 -5.890625 0.6875 -4.96875 C 0.6875 -4.78125 0.703125 -4.34375 1.125 -3.875 C 1.234375 -3.75 1.609375 -3.5 1.84375 -3.328125 C 1.28125 -3.046875 0.421875 -2.484375 0.421875 -1.5 C 0.421875 -0.453125 1.4375 0.21875 2.484375 0.21875 C 3.609375 0.21875 4.546875 -0.609375 4.546875 -1.671875 C 4.546875 -2.03125 4.4375 -2.484375 4.0625 -2.890625 C 3.875 -3.109375 3.71875 -3.203125 3.078125 -3.609375 Z M 2.078125 -3.1875 L 3.296875 -2.40625 C 3.578125 -2.21875 4.046875 -1.921875 4.046875 -1.3125 C 4.046875 -0.578125 3.296875 -0.0625 2.484375 -0.0625 C 1.625 -0.0625 0.921875 -0.671875 0.921875 -1.5 C 0.921875 -2.078125 1.234375 -2.71875 2.078125 -3.1875 Z M 2.078125 -3.1875 "/>
</symbol>
<symbol overflow="visible" id="glyph2-6">
<path style="stroke:none;" d="M 6.734375 -1.609375 L 6.484375 -1.609375 C 6.4375 -1.359375 6.40625 -1.125 6.3125 -0.890625 C 6.265625 -0.734375 6.234375 -0.640625 5.65625 -0.640625 L 4.859375 -0.640625 C 4.984375 -1.203125 5.296875 -1.6875 5.75 -2.34375 C 6.203125 -3.046875 6.625 -3.734375 6.625 -4.515625 C 6.625 -5.90625 5.28125 -7.015625 3.59375 -7.015625 C 1.875 -7.015625 0.5625 -5.875 0.5625 -4.515625 C 0.5625 -3.734375 0.96875 -3.046875 1.4375 -2.34375 C 1.875 -1.6875 2.1875 -1.203125 2.3125 -0.640625 L 1.515625 -0.640625 C 0.953125 -0.640625 0.921875 -0.734375 0.859375 -0.875 C 0.78125 -1.109375 0.734375 -1.359375 0.6875 -1.609375 L 0.4375 -1.609375 L 0.765625 0 L 2.359375 0 C 2.578125 0 2.609375 0 2.609375 -0.203125 C 2.609375 -0.90625 2.296875 -1.78125 2.0625 -2.421875 C 1.859375 -3 1.578125 -3.78125 1.578125 -4.53125 C 1.578125 -6.125 2.671875 -6.796875 3.578125 -6.796875 C 4.53125 -6.796875 5.59375 -6.078125 5.59375 -4.53125 C 5.59375 -3.78125 5.328125 -3.03125 5.03125 -2.203125 C 4.890625 -1.796875 4.5625 -0.890625 4.5625 -0.203125 C 4.5625 0 4.59375 0 4.828125 0 L 6.40625 0 Z M 6.734375 -1.609375 "/>
</symbol>
<symbol overflow="visible" id="glyph3-0">
<path style="stroke:none;" d=""/>
</symbol>
<symbol overflow="visible" id="glyph3-1">
<path style="stroke:none;" d="M 3.875 -2.765625 L 1.875 -4.75 C 1.765625 -4.859375 1.734375 -4.890625 1.65625 -4.890625 C 1.5625 -4.890625 1.46875 -4.796875 1.46875 -4.6875 C 1.46875 -4.625 1.484375 -4.59375 1.59375 -4.484375 L 3.578125 -2.484375 L 1.59375 -0.484375 C 1.484375 -0.375 1.46875 -0.359375 1.46875 -0.28125 C 1.46875 -0.171875 1.5625 -0.09375 1.65625 -0.09375 C 1.734375 -0.09375 1.765625 -0.109375 1.875 -0.234375 L 3.859375 -2.203125 L 5.921875 -0.15625 C 5.9375 -0.140625 6.015625 -0.09375 6.078125 -0.09375 C 6.1875 -0.09375 6.265625 -0.171875 6.265625 -0.28125 C 6.265625 -0.3125 6.265625 -0.34375 6.234375 -0.390625 C 6.234375 -0.421875 4.640625 -1.984375 4.15625 -2.484375 L 5.96875 -4.3125 C 6.015625 -4.375 6.171875 -4.5 6.21875 -4.5625 C 6.234375 -4.578125 6.265625 -4.625 6.265625 -4.6875 C 6.265625 -4.796875 6.1875 -4.890625 6.078125 -4.890625 C 5.984375 -4.890625 5.953125 -4.84375 5.84375 -4.734375 Z M 3.875 -2.765625 "/>
</symbol>
<symbol overflow="visible" id="glyph4-0">
<path style="stroke:none;" d=""/>
</symbol>
<symbol overflow="visible" id="glyph4-1">
<path style="stroke:none;" d="M 14.6875 0 L 14.6875 -0.609375 L 13.171875 -0.609375 L 13.171875 -9.21875 L 14.6875 -9.21875 L 14.6875 -9.828125 L 11.640625 -9.828125 C 11.328125 -9.828125 11.203125 -9.828125 11.078125 -9.53125 L 7.640625 -1.8125 L 4.203125 -9.53125 C 4.0625 -9.828125 3.9375 -9.828125 3.640625 -9.828125 L 0.59375 -9.828125 L 0.59375 -9.21875 L 2.109375 -9.21875 L 2.109375 -1.046875 C 2.109375 -0.734375 2.09375 -0.71875 1.71875 -0.65625 C 1.46875 -0.625 1.171875 -0.609375 0.921875 -0.609375 L 0.59375 -0.609375 L 0.59375 0 C 0.921875 -0.03125 2.03125 -0.03125 2.4375 -0.03125 C 2.84375 -0.03125 3.96875 -0.03125 4.296875 0 L 4.296875 -0.609375 L 3.96875 -0.609375 C 3.578125 -0.609375 3.546875 -0.609375 3.203125 -0.65625 C 2.796875 -0.71875 2.78125 -0.734375 2.78125 -1.046875 L 2.78125 -9.046875 L 2.796875 -9.046875 L 6.6875 -0.296875 C 6.765625 -0.140625 6.84375 0 7.09375 0 C 7.34375 0 7.421875 -0.140625 7.5 -0.296875 L 11.46875 -9.21875 L 11.484375 -9.21875 L 11.484375 -0.609375 L 9.953125 -0.609375 L 9.953125 0 C 10.34375 -0.03125 11.828125 -0.03125 12.328125 -0.03125 C 12.8125 -0.03125 14.296875 -0.03125 14.6875 0 Z M 14.6875 0 "/>
</symbol>
<symbol overflow="visible" id="glyph4-2">
<path style="stroke:none;" d="M 4.46875 -2.515625 L 4.46875 -3.84375 L 0.171875 -3.84375 L 0.171875 -2.515625 Z M 4.46875 -2.515625 "/>
</symbol>
<symbol overflow="visible" id="glyph4-3">
<path style="stroke:none;" d="M 10.609375 -6.296875 L 10.3125 -9.703125 L 0.875 -9.703125 L 0.59375 -6.296875 L 1.1875 -6.296875 C 1.3125 -7.859375 1.4375 -9.078125 3.5 -9.078125 L 4.65625 -9.078125 L 4.65625 -0.609375 L 2.5 -0.609375 L 2.5 0 L 5.609375 -0.03125 L 8.71875 0 L 8.71875 -0.609375 L 6.546875 -0.609375 L 6.546875 -9.078125 L 7.6875 -9.078125 C 9.75 -9.078125 9.875 -7.875 10 -6.296875 Z M 10.609375 -6.296875 "/>
</symbol>
<symbol overflow="visible" id="glyph4-4">
<path style="stroke:none;" d="M 8.59375 0 L 8.59375 -0.609375 L 7.609375 -0.609375 L 7.609375 -4.390625 C 7.609375 -5.75 7.015625 -6.453125 5.4375 -6.453125 C 4 -6.453125 3.296875 -5.4375 3.09375 -5 L 3.078125 -5 L 3.078125 -9.9375 L 0.609375 -9.828125 L 0.609375 -9.21875 C 1.484375 -9.21875 1.59375 -9.21875 1.59375 -8.65625 L 1.59375 -0.609375 L 0.609375 -0.609375 L 0.609375 0 C 0.9375 -0.03125 1.96875 -0.03125 2.359375 -0.03125 C 2.765625 -0.03125 3.8125 -0.03125 4.140625 0 L 4.140625 -0.609375 L 3.15625 -0.609375 L 3.15625 -3.671875 C 3.15625 -5.21875 4.296875 -5.96875 5.21875 -5.96875 C 5.75 -5.96875 6.046875 -5.625 6.046875 -4.546875 L 6.046875 -0.609375 L 5.0625 -0.609375 L 5.0625 0 C 5.390625 -0.03125 6.421875 -0.03125 6.8125 -0.03125 C 7.21875 -0.03125 8.265625 -0.03125 8.59375 0 Z M 8.59375 0 "/>
</symbol>
<symbol overflow="visible" id="glyph4-5">
<path style="stroke:none;" d="M 6.890625 -1.671875 C 6.890625 -1.890625 6.671875 -1.890625 6.59375 -1.890625 C 6.359375 -1.890625 6.34375 -1.84375 6.265625 -1.65625 C 5.890625 -0.734375 4.9375 -0.4375 4.25 -0.4375 C 2.171875 -0.4375 2.15625 -2.359375 2.15625 -3.171875 L 6.46875 -3.171875 C 6.8125 -3.171875 6.890625 -3.171875 6.890625 -3.53125 C 6.890625 -3.953125 6.796875 -5.03125 6.125 -5.703125 C 5.53125 -6.296875 4.734375 -6.484375 3.890625 -6.484375 C 1.65625 -6.484375 0.4375 -5.03125 0.4375 -3.21875 C 0.4375 -1.21875 1.921875 0.09375 4.078125 0.09375 C 6.25 0.09375 6.890625 -1.4375 6.890625 -1.671875 Z M 5.578125 -3.578125 L 2.15625 -3.578125 C 2.1875 -4.171875 2.203125 -4.734375 2.5 -5.25 C 2.78125 -5.703125 3.28125 -6.015625 3.890625 -6.015625 C 5.4375 -6.015625 5.5625 -4.296875 5.578125 -3.578125 Z M 5.578125 -3.578125 "/>
</symbol>
<symbol overflow="visible" id="glyph4-6">
<path style="stroke:none;" d="M 7.59375 -3.140625 C 7.59375 -5.078125 6.28125 -6.484375 4.03125 -6.484375 C 1.6875 -6.484375 0.4375 -5 0.4375 -3.140625 C 0.4375 -1.265625 1.765625 0.09375 4.015625 0.09375 C 6.34375 0.09375 7.59375 -1.328125 7.59375 -3.140625 Z M 5.875 -3.28125 C 5.875 -2.09375 5.875 -0.4375 4.03125 -0.4375 C 2.15625 -0.4375 2.15625 -2.109375 2.15625 -3.28125 C 2.15625 -3.953125 2.15625 -4.671875 2.4375 -5.1875 C 2.75 -5.765625 3.390625 -6.015625 4.015625 -6.015625 C 4.828125 -6.015625 5.34375 -5.625 5.59375 -5.234375 C 5.875 -4.71875 5.875 -3.96875 5.875 -3.28125 Z M 5.875 -3.28125 "/>
</symbol>
<symbol overflow="visible" id="glyph4-7">
<path style="stroke:none;" d="M 6.125 -5.3125 C 6.125 -6.046875 5.375 -6.453125 4.6875 -6.453125 C 3.546875 -6.453125 3.0625 -5.453125 2.859375 -4.859375 L 2.84375 -4.859375 L 2.84375 -6.453125 L 0.5 -6.328125 L 0.5 -5.71875 C 1.390625 -5.71875 1.484375 -5.71875 1.484375 -5.15625 L 1.484375 -0.609375 L 0.5 -0.609375 L 0.5 0 C 0.828125 -0.03125 1.90625 -0.03125 2.3125 -0.03125 C 2.71875 -0.03125 3.890625 -0.03125 4.234375 0 L 4.234375 -0.609375 L 2.984375 -0.609375 L 2.984375 -3.21875 C 2.984375 -3.703125 3.078125 -5.96875 4.75 -5.96875 C 4.5625 -5.8125 4.453125 -5.578125 4.453125 -5.3125 C 4.453125 -4.734375 4.921875 -4.484375 5.28125 -4.484375 C 5.640625 -4.484375 6.125 -4.734375 6.125 -5.3125 Z M 6.125 -5.3125 "/>
</symbol>
<symbol overflow="visible" id="glyph4-8">
<path style="stroke:none;" d="M 8.15625 -5.75 L 8.15625 -6.359375 C 7.671875 -6.328125 7.609375 -6.328125 7.015625 -6.328125 L 5.78125 -6.359375 L 5.78125 -5.75 C 5.78125 -5.75 6.46875 -5.75 6.46875 -5.5625 C 6.46875 -5.515625 6.4375 -5.4375 6.421875 -5.390625 L 4.75 -1.78125 L 2.90625 -5.75 L 3.703125 -5.75 L 3.703125 -6.359375 C 3.359375 -6.328125 2.375 -6.328125 1.984375 -6.328125 C 1.5625 -6.328125 0.71875 -6.328125 0.34375 -6.359375 L 0.34375 -5.75 L 1.265625 -5.75 L 3.90625 0 C 3.84375 0.171875 3.640625 0.59375 3.5625 0.765625 C 3.265625 1.40625 2.8125 2.390625 1.8125 2.390625 C 1.75 2.390625 1.578125 2.390625 1.421875 2.3125 C 1.453125 2.296875 1.875 2.125 1.875 1.578125 C 1.875 1.109375 1.53125 0.796875 1.109375 0.796875 C 0.65625 0.796875 0.3125 1.109375 0.3125 1.59375 C 0.3125 2.265625 0.953125 2.859375 1.8125 2.859375 C 2.984375 2.859375 3.75 1.8125 4.046875 1.171875 L 7.09375 -5.4375 C 7.171875 -5.625 7.234375 -5.75 8.15625 -5.75 Z M 8.15625 -5.75 "/>
</symbol>
</g>
<clipPath id="clip1">
  <path d="M 45 330 L 60 330 L 60 359 L 45 359 Z M 45 330 "/>
</clipPath>
<clipPath id="clip2">
  <path d="M 45.242188 344.417969 C 128.480469 271.101562 157.773438 184.203125 135.898438 75.460938 C 260.367188 170.164062 388.042969 186.445312 532.292969 126.003906 C 489.195312 225.132812 499.34375 314.152344 563.644531 401.046875 C 444.632812 405.472656 361.453125 457.71875 305.78125 562.996094 C 260.207031 437.8125 176.441406 367.539062 45.242188 344.417969 Z M 45.242188 344.417969 "/>
</clipPath>
<clipPath id="clip3">
  <path d="M 45 321 L 68 321 L 68 368 L 45 368 Z M 45 321 "/>
</clipPath>
<clipPath id="clip4">
  <path d="M 45.242188 344.417969 C 128.480469 271.101562 157.773438 184.203125 135.898438 75.460938 C 260.367188 170.164062 388.042969 186.445312 532.292969 126.003906 C 489.195312 225.132812 499.34375 314.152344 563.644531 401.046875 C 444.632812 405.472656 361.453125 457.71875 305.78125 562.996094 C 260.207031 437.8125 176.441406 367.539062 45.242188 344.417969 Z M 45.242188 344.417969 "/>
</clipPath>
<clipPath id="clip5">
  <path d="M 45 313 L 77 313 L 77 376 L 45 376 Z M 45 313 "/>
</clipPath>
<clipPath id="clip6">
  <path d="M 45.242188 344.417969 C 128.480469 271.101562 157.773438 184.203125 135.898438 75.460938 C 260.367188 170.164062 388.042969 186.445312 532.292969 126.003906 C 489.195312 225.132812 499.34375 314.152344 563.644531 401.046875 C 444.632812 405.472656 361.453125 457.71875 305.78125 562.996094 C 260.207031 437.8125 176.441406 367.539062 45.242188 344.417969 Z M 45.242188 344.417969 "/>
</clipPath>
<clipPath id="clip7">
  <path d="M 45 304 L 85 304 L 85 385 L 45 385 Z M 45 304 "/>
</clipPath>
<clipPath id="clip8">
  <path d="M 45.242188 344.417969 C 128.480469 271.101562 157.773438 184.203125 135.898438 75.460938 C 260.367188 170.164062 388.042969 186.445312 532.292969 126.003906 C 489.195312 225.132812 499.34375 314.152344 563.644531 401.046875 C 444.632812 405.472656 361.453125 457.71875 305.78125 562.996094 C 260.207031 437.8125 176.441406 367.539062 45.242188 344.417969 Z M 45.242188 344.417969 "/>
</clipPath>
<clipPath id="clip9">
  <path d="M 45 296 L 94 296 L 94 393 L 45 393 Z M 45 296 "/>
</clipPath>
<clipPath id="clip10">
  <path d="M 45.242188 344.417969 C 128.480469 271.101562 157.773438 184.203125 135.898438 75.460938 C 260.367188 170.164062 388.042969 186.445312 532.292969 126.003906 C 489.195312 225.132812 499.34375 314.152344 563.644531 401.046875 C 444.632812 405.472656 361.453125 457.71875 305.78125 562.996094 C 260.207031 437.8125 176.441406 367.539062 45.242188 344.417969 Z M 45.242188 344.417969 "/>
</clipPath>
<clipPath id="clip11">
  <path d="M 45 287 L 102 287 L 102 402 L 45 402 Z M 45 287 "/>
</clipPath>
<clipPath id="clip12">
  <path d="M 45.242188 344.417969 C 128.480469 271.101562 157.773438 184.203125 135.898438 75.460938 C 260.367188 170.164062 388.042969 186.445312 532.292969 126.003906 C 489.195312 225.132812 499.34375 314.152344 563.644531 401.046875 C 444.632812 405.472656 361.453125 457.71875 305.78125 562.996094 C 260.207031 437.8125 176.441406 367.539062 45.242188 344.417969 Z M 45.242188 344.417969 "/>
</clipPath>
<clipPath id="clip13">
  <path d="M 121 75 L 151 75 L 151 90 L 121 90 Z M 121 75 "/>
</clipPath>
<clipPath id="clip14">
  <path d="M 45.242188 344.417969 C 128.480469 271.101562 157.773438 184.203125 135.898438 75.460938 C 260.367188 170.164062 388.042969 186.445312 532.292969 126.003906 C 489.195312 225.132812 499.34375 314.152344 563.644531 401.046875 C 444.632812 405.472656 361.453125 457.71875 305.78125 562.996094 C 260.207031 437.8125 176.441406 367.539062 45.242188 344.417969 Z M 45.242188 344.417969 "/>
</clipPath>
<clipPath id="clip15">
  <path d="M 113 75 L 159 75 L 159 99 L 113 99 Z M 113 75 "/>
</clipPath>
<clipPath id="clip16">
  <path d="M 45.242188 344.417969 C 128.480469 271.101562 157.773438 184.203125 135.898438 75.460938 C 260.367188 170.164062 388.042969 186.445312 532.292969 126.003906 C 489.195312 225.132812 499.34375 314.152344 563.644531 401.046875 C 444.632812 405.472656 361.453125 457.71875 305.78125 562.996094 C 260.207031 437.8125 176.441406 367.539062 45.242188 344.417969 Z M 45.242188 344.417969 "/>
</clipPath>
<clipPath id="clip17">
  <path d="M 104 75 L 168 75 L 168 107 L 104 107 Z M 104 75 "/>
</clipPath>
<clipPath id="clip18">
  <path d="M 45.242188 344.417969 C 128.480469 271.101562 157.773438 184.203125 135.898438 75.460938 C 260.367188 170.164062 388.042969 186.445312 532.292969 126.003906 C 489.195312 225.132812 499.34375 314.152344 563.644531 401.046875 C 444.632812 405.472656 361.453125 457.71875 305.78125 562.996094 C 260.207031 437.8125 176.441406 367.539062 45.242188 344.417969 Z M 45.242188 344.417969 "/>
</clipPath>
<clipPath id="clip19">
  <path d="M 96 75 L 176 75 L 176 116 L 96 116 Z M 96 75 "/>
</clipPath>
<clipPath id="clip20">
  <path d="M 45.242188 344.417969 C 128.480469 271.101562 157.773438 184.203125 135.898438 75.460938 C 260.367188 170.164062 388.042969 186.445312 532.292969 126.003906 C 489.195312 225.132812 499.34375 314.152344 563.644531 401.046875 C 444.632812 405.472656 361.453125 457.71875 305.78125 562.996094 C 260.207031 437.8125 176.441406 367.539062 45.242188 344.417969 Z M 45.242188 344.417969 "/>
</clipPath>
<clipPath id="clip21">
  <path d="M 87 75 L 184 75 L 184 124 L 87 124 Z M 87 75 "/>
</clipPath>
<clipPath id="clip22">
  <path d="M 45.242188 344.417969 C 128.480469 271.101562 157.773438 184.203125 135.898438 75.460938 C 260.367188 170.164062 388.042969 186.445312 532.292969 126.003906 C 489.195312 225.132812 499.34375 314.152344 563.644531 401.046875 C 444.632812 405.472656 361.453125 457.71875 305.78125 562.996094 C 260.207031 437.8125 176.441406 367.539062 45.242188 344.417969 Z M 45.242188 344.417969 "/>
</clipPath>
<clipPath id="clip23">
  <path d="M 79 75 L 193 75 L 193 133 L 79 133 Z M 79 75 "/>
</clipPath>
<clipPath id="clip24">
  <path d="M 45.242188 344.417969 C 128.480469 271.101562 157.773438 184.203125 135.898438 75.460938 C 260.367188 170.164062 388.042969 186.445312 532.292969 126.003906 C 489.195312 225.132812 499.34375 314.152344 563.644531 401.046875 C 444.632812 405.472656 361.453125 457.71875 305.78125 562.996094 C 260.207031 437.8125 176.441406 367.539062 45.242188 344.417969 Z M 45.242188 344.417969 "/>
</clipPath>
<clipPath id="clip25">
  <path d="M 518 111 L 547 111 L 547 141 L 518 141 Z M 518 111 "/>
</clipPath>
<clipPath id="clip26">
  <path d="M 45.242188 344.417969 C 128.480469 271.101562 157.773438 184.203125 135.898438 75.460938 C 260.367188 170.164062 388.042969 186.445312 532.292969 126.003906 C 489.195312 225.132812 499.34375 314.152344 563.644531 401.046875 C 444.632812 405.472656 361.453125 457.71875 305.78125 562.996094 C 260.207031 437.8125 176.441406 367.539062 45.242188 344.417969 Z M 45.242188 344.417969 "/>
</clipPath>
<clipPath id="clip27">
  <path d="M 509 103 L 555 103 L 555 149 L 509 149 Z M 509 103 "/>
</clipPath>
<clipPath id="clip28">
  <path d="M 45.242188 344.417969 C 128.480469 271.101562 157.773438 184.203125 135.898438 75.460938 C 260.367188 170.164062 388.042969 186.445312 532.292969 126.003906 C 489.195312 225.132812 499.34375 314.152344 563.644531 401.046875 C 444.632812 405.472656 361.453125 457.71875 305.78125 562.996094 C 260.207031 437.8125 176.441406 367.539062 45.242188 344.417969 Z M 45.242188 344.417969 "/>
</clipPath>
<clipPath id="clip29">
  <path d="M 501 94 L 564 94 L 564 158 L 501 158 Z M 501 94 "/>
</clipPath>
<clipPath id="clip30">
  <path d="M 45.242188 344.417969 C 128.480469 271.101562 157.773438 184.203125 135.898438 75.460938 C 260.367188 170.164062 388.042969 186.445312 532.292969 126.003906 C 489.195312 225.132812 499.34375 314.152344 563.644531 401.046875 C 444.632812 405.472656 361.453125 457.71875 305.78125 562.996094 C 260.207031 437.8125 176.441406 367.539062 45.242188 344.417969 Z M 45.242188 344.417969 "/>
</clipPath>
<clipPath id="clip31">
  <path d="M 492 86 L 564 86 L 564 166 L 492 166 Z M 492 86 "/>
</clipPath>
<clipPath id="clip32">
  <path d="M 45.242188 344.417969 C 128.480469 271.101562 157.773438 184.203125 135.898438 75.460938 C 260.367188 170.164062 388.042969 186.445312 532.292969 126.003906 C 489.195312 225.132812 499.34375 314.152344 563.644531 401.046875 C 444.632812 405.472656 361.453125 457.71875 305.78125 562.996094 C 260.207031 437.8125 176.441406 367.539062 45.242188 344.417969 Z M 45.242188 344.417969 "/>
</clipPath>
<clipPath id="clip33">
  <path d="M 484 77 L 564 77 L 564 175 L 484 175 Z M 484 77 "/>
</clipPath>
<clipPath id="clip34">
  <path d="M 45.242188 344.417969 C 128.480469 271.101562 157.773438 184.203125 135.898438 75.460938 C 260.367188 170.164062 388.042969 186.445312 532.292969 126.003906 C 489.195312 225.132812 499.34375 314.152344 563.644531 401.046875 C 444.632812 405.472656 361.453125 457.71875 305.78125 562.996094 C 260.207031 437.8125 176.441406 367.539062 45.242188 344.417969 Z M 45.242188 344.417969 "/>
</clipPath>
<clipPath id="clip35">
  <path d="M 475 75 L 564 75 L 564 183 L 475 183 Z M 475 75 "/>
</clipPath>
<clipPath id="clip36">
  <path d="M 45.242188 344.417969 C 128.480469 271.101562 157.773438 184.203125 135.898438 75.460938 C 260.367188 170.164062 388.042969 186.445312 532.292969 126.003906 C 489.195312 225.132812 499.34375 314.152344 563.644531 401.046875 C 444.632812 405.472656 361.453125 457.71875 305.78125 562.996094 C 260.207031 437.8125 176.441406 367.539062 45.242188 344.417969 Z M 45.242188 344.417969 "/>
</clipPath>
<clipPath id="clip37">
  <path d="M 549 386 L 564 386 L 564 416 L 549 416 Z M 549 386 "/>
</clipPath>
<clipPath id="clip38">
  <path d="M 45.242188 344.417969 C 128.480469 271.101562 157.773438 184.203125 135.898438 75.460938 C 260.367188 170.164062 388.042969 186.445312 532.292969 126.003906 C 489.195312 225.132812 499.34375 314.152344 563.644531 401.046875 C 444.632812 405.472656 361.453125 457.71875 305.78125 562.996094 C 260.207031 437.8125 176.441406 367.539062 45.242188 344.417969 Z M 45.242188 344.417969 "/>
</clipPath>
<clipPath id="clip39">
  <path d="M 541 378 L 564 378 L 564 424 L 541 424 Z M 541 378 "/>
</clipPath>
<clipPath id="clip40">
  <path d="M 45.242188 344.417969 C 128.480469 271.101562 157.773438 184.203125 135.898438 75.460938 C 260.367188 170.164062 388.042969 186.445312 532.292969 126.003906 C 489.195312 225.132812 499.34375 314.152344 563.644531 401.046875 C 444.632812 405.472656 361.453125 457.71875 305.78125 562.996094 C 260.207031 437.8125 176.441406 367.539062 45.242188 344.417969 Z M 45.242188 344.417969 "/>
</clipPath>
<clipPath id="clip41">
  <path d="M 532 369 L 564 369 L 564 433 L 532 433 Z M 532 369 "/>
</clipPath>
<clipPath id="clip42">
  <path d="M 45.242188 344.417969 C 128.480469 271.101562 157.773438 184.203125 135.898438 75.460938 C 260.367188 170.164062 388.042969 186.445312 532.292969 126.003906 C 489.195312 225.132812 499.34375 314.152344 563.644531 401.046875 C 444.632812 405.472656 361.453125 457.71875 305.78125 562.996094 C 260.207031 437.8125 176.441406 367.539062 45.242188 344.417969 Z M 45.242188 344.417969 "/>
</clipPath>
<clipPath id="clip43">
  <path d="M 524 361 L 564 361 L 564 441 L 524 441 Z M 524 361 "/>
</clipPath>
<clipPath id="clip44">
  <path d="M 45.242188 344.417969 C 128.480469 271.101562 157.773438 184.203125 135.898438 75.460938 C 260.367188 170.164062 388.042969 186.445312 532.292969 126.003906 C 489.195312 225.132812 499.34375 314.152344 563.644531 401.046875 C 444.632812 405.472656 361.453125 457.71875 305.78125 562.996094 C 260.207031 437.8125 176.441406 367.539062 45.242188 344.417969 Z M 45.242188 344.417969 "/>
</clipPath>
<clipPath id="clip45">
  <path d="M 515 352 L 564 352 L 564 450 L 515 450 Z M 515 352 "/>
</clipPath>
<clipPath id="clip46">
  <path d="M 45.242188 344.417969 C 128.480469 271.101562 157.773438 184.203125 135.898438 75.460938 C 260.367188 170.164062 388.042969 186.445312 532.292969 126.003906 C 489.195312 225.132812 499.34375 314.152344 563.644531 401.046875 C 444.632812 405.472656 361.453125 457.71875 305.78125 562.996094 C 260.207031 437.8125 176.441406 367.539062 45.242188 344.417969 Z M 45.242188 344.417969 "/>
</clipPath>
<clipPath id="clip47">
  <path d="M 507 344 L 564 344 L 564 458 L 507 458 Z M 507 344 "/>
</clipPath>
<clipPath id="clip48">
  <path d="M 45.242188 344.417969 C 128.480469 271.101562 157.773438 184.203125 135.898438 75.460938 C 260.367188 170.164062 388.042969 186.445312 532.292969 126.003906 C 489.195312 225.132812 499.34375 314.152344 563.644531 401.046875 C 444.632812 405.472656 361.453125 457.71875 305.78125 562.996094 C 260.207031 437.8125 176.441406 367.539062 45.242188 344.417969 Z M 45.242188 344.417969 "/>
</clipPath>
<clipPath id="clip49">
  <path d="M 291 548 L 320 548 L 320 563 L 291 563 Z M 291 548 "/>
</clipPath>
<clipPath id="clip50">
  <path d="M 45.242188 344.417969 C 128.480469 271.101562 157.773438 184.203125 135.898438 75.460938 C 260.367188 170.164062 388.042969 186.445312 532.292969 126.003906 C 489.195312 225.132812 499.34375 314.152344 563.644531 401.046875 C 444.632812 405.472656 361.453125 457.71875 305.78125 562.996094 C 260.207031 437.8125 176.441406 367.539062 45.242188 344.417969 Z M 45.242188 344.417969 "/>
</clipPath>
<clipPath id="clip51">
  <path d="M 283 540 L 329 540 L 329 563 L 283 563 Z M 283 540 "/>
</clipPath>
<clipPath id="clip52">
  <path d="M 45.242188 344.417969 C 128.480469 271.101562 157.773438 184.203125 135.898438 75.460938 C 260.367188 170.164062 388.042969 186.445312 532.292969 126.003906 C 489.195312 225.132812 499.34375 314.152344 563.644531 401.046875 C 444.632812 405.472656 361.453125 457.71875 305.78125 562.996094 C 260.207031 437.8125 176.441406 367.539062 45.242188 344.417969 Z M 45.242188 344.417969 "/>
</clipPath>
<clipPath id="clip53">
  <path d="M 274 531 L 337 531 L 337 563 L 274 563 Z M 274 531 "/>
</clipPath>
<clipPath id="clip54">
  <path d="M 45.242188 344.417969 C 128.480469 271.101562 157.773438 184.203125 135.898438 75.460938 C 260.367188 170.164062 388.042969 186.445312 532.292969 126.003906 C 489.195312 225.132812 499.34375 314.152344 563.644531 401.046875 C 444.632812 405.472656 361.453125 457.71875 305.78125 562.996094 C 260.207031 437.8125 176.441406 367.539062 45.242188 344.417969 Z M 45.242188 344.417969 "/>
</clipPath>
<clipPath id="clip55">
  <path d="M 266 523 L 346 523 L 346 563 L 266 563 Z M 266 523 "/>
</clipPath>
<clipPath id="clip56">
  <path d="M 45.242188 344.417969 C 128.480469 271.101562 157.773438 184.203125 135.898438 75.460938 C 260.367188 170.164062 388.042969 186.445312 532.292969 126.003906 C 489.195312 225.132812 499.34375 314.152344 563.644531 401.046875 C 444.632812 405.472656 361.453125 457.71875 305.78125 562.996094 C 260.207031 437.8125 176.441406 367.539062 45.242188 344.417969 Z M 45.242188 344.417969 "/>
</clipPath>
<clipPath id="clip57">
  <path d="M 257 514 L 354 514 L 354 563 L 257 563 Z M 257 514 "/>
</clipPath>
<clipPath id="clip58">
  <path d="M 45.242188 344.417969 C 128.480469 271.101562 157.773438 184.203125 135.898438 75.460938 C 260.367188 170.164062 388.042969 186.445312 532.292969 126.003906 C 489.195312 225.132812 499.34375 314.152344 563.644531 401.046875 C 444.632812 405.472656 361.453125 457.71875 305.78125 562.996094 C 260.207031 437.8125 176.441406 367.539062 45.242188 344.417969 Z M 45.242188 344.417969 "/>
</clipPath>
<clipPath id="clip59">
  <path d="M 249 506 L 363 506 L 363 563 L 249 563 Z M 249 506 "/>
</clipPath>
<clipPath id="clip60">
  <path d="M 45.242188 344.417969 C 128.480469 271.101562 157.773438 184.203125 135.898438 75.460938 C 260.367188 170.164062 388.042969 186.445312 532.292969 126.003906 C 489.195312 225.132812 499.34375 314.152344 563.644531 401.046875 C 444.632812 405.472656 361.453125 457.71875 305.78125 562.996094 C 260.207031 437.8125 176.441406 367.539062 45.242188 344.417969 Z M 45.242188 344.417969 "/>
</clipPath>
<clipPath id="clip61">
  <path d="M 28 58 L 581 58 L 581 578.660156 L 28 578.660156 Z M 28 58 "/>
</clipPath>
</defs>
<g id="surface1">
<g style="fill:rgb(0%,0%,0%);fill-opacity:1;">
  <use xlink:href="#glyph0-1" x="3.554935" y="340.655499"/>
  <use xlink:href="#glyph0-2" x="9.087764" y="340.655499"/>
  <use xlink:href="#glyph0-3" x="13.506067" y="340.655499"/>
  <use xlink:href="#glyph0-2" x="17.377057" y="340.655499"/>
  <use xlink:href="#glyph0-4" x="21.795359" y="340.655499"/>
  <use xlink:href="#glyph0-5" x="25.696203" y="340.655499"/>
  <use xlink:href="#glyph0-3" x="30.671768" y="340.655499"/>
  <use xlink:href="#glyph0-6" x="34.542759" y="340.655499"/>
  <use xlink:href="#glyph0-7" x="37.309173" y="340.655499"/>
</g>
<g style="fill:rgb(0%,0%,0%);fill-opacity:1;">
  <use xlink:href="#glyph1-1" x="6.524511" y="352.596859"/>
</g>
<g style="fill:rgb(0%,0%,0%);fill-opacity:1;">
  <use xlink:href="#glyph1-2" x="13.191769" y="352.596859"/>
</g>
<g style="fill:rgb(0%,0%,0%);fill-opacity:1;">
  <use xlink:href="#glyph2-1" x="21.066972" y="352.596859"/>
  <use xlink:href="#glyph2-2" x="24.928011" y="352.596859"/>
  <use xlink:href="#glyph2-3" x="29.903577" y="352.596859"/>
  <use xlink:href="#glyph2-4" x="34.879143" y="352.596859"/>
</g>
<g style="fill:rgb(0%,0%,0%);fill-opacity:1;">
  <use xlink:href="#glyph0-1" x="116.811094" y="57.514874"/>
  <use xlink:href="#glyph0-2" x="122.343923" y="57.514874"/>
  <use xlink:href="#glyph0-3" x="126.762225" y="57.514874"/>
  <use xlink:href="#glyph0-2" x="130.633215" y="57.514874"/>
  <use xlink:href="#glyph0-4" x="135.051518" y="57.514874"/>
  <use xlink:href="#glyph0-5" x="138.952361" y="57.514874"/>
  <use xlink:href="#glyph0-3" x="143.927927" y="57.514874"/>
  <use xlink:href="#glyph0-6" x="147.798917" y="57.514874"/>
  <use xlink:href="#glyph0-7" x="150.565331" y="57.514874"/>
</g>
<g style="fill:rgb(0%,0%,0%);fill-opacity:1;">
  <use xlink:href="#glyph1-3" x="109.181357" y="69.456233"/>
</g>
<g style="fill:rgb(0%,0%,0%);fill-opacity:1;">
  <use xlink:href="#glyph2-1" x="117.100799" y="69.456233"/>
  <use xlink:href="#glyph2-5" x="120.961838" y="69.456233"/>
  <use xlink:href="#glyph2-4" x="125.937403" y="69.456233"/>
</g>
<g style="fill:rgb(0%,0%,0%);fill-opacity:1;">
  <use xlink:href="#glyph3-1" x="132.027476" y="69.456233"/>
</g>
<g style="fill:rgb(0%,0%,0%);fill-opacity:1;">
  <use xlink:href="#glyph1-3" x="141.978577" y="69.456233"/>
</g>
<g style="fill:rgb(0%,0%,0%);fill-opacity:1;">
  <use xlink:href="#glyph2-1" x="149.898018" y="69.456233"/>
  <use xlink:href="#glyph2-5" x="153.759057" y="69.456233"/>
  <use xlink:href="#glyph2-4" x="158.734623" y="69.456233"/>
</g>
<g style="fill:rgb(0%,0%,0%);fill-opacity:1;">
  <use xlink:href="#glyph0-8" x="510.322205" y="120.446982"/>
</g>
<g style="fill:rgb(0%,0%,0%);fill-opacity:1;">
  <use xlink:href="#glyph0-9" x="517.238241" y="120.446982"/>
  <use xlink:href="#glyph0-10" x="522.492438" y="120.446982"/>
</g>
<g style="fill:rgb(0%,0%,0%);fill-opacity:1;">
  <use xlink:href="#glyph0-2" x="528.293948" y="120.446982"/>
</g>
<g style="fill:rgb(0%,0%,0%);fill-opacity:1;">
  <use xlink:href="#glyph0-11" x="536.025977" y="120.446982"/>
</g>
<g style="fill:rgb(0%,0%,0%);fill-opacity:1;">
  <use xlink:href="#glyph0-11" x="539.896967" y="120.446982"/>
</g>
<g style="fill:rgb(0%,0%,0%);fill-opacity:1;">
  <use xlink:href="#glyph0-12" x="546.803053" y="120.446982"/>
</g>
<g style="fill:rgb(0%,0%,0%);fill-opacity:1;">
  <use xlink:href="#glyph0-8" x="567.159322" y="403.423397"/>
</g>
<g style="fill:rgb(0%,0%,0%);fill-opacity:1;">
  <use xlink:href="#glyph0-9" x="574.075358" y="403.423397"/>
  <use xlink:href="#glyph0-10" x="579.329556" y="403.423397"/>
</g>
<g style="fill:rgb(0%,0%,0%);fill-opacity:1;">
  <use xlink:href="#glyph0-2" x="585.131065" y="403.423397"/>
</g>
<g style="fill:rgb(0%,0%,0%);fill-opacity:1;">
  <use xlink:href="#glyph0-11" x="592.863095" y="403.423397"/>
</g>
<g style="fill:rgb(0%,0%,0%);fill-opacity:1;">
  <use xlink:href="#glyph0-11" x="596.734085" y="403.423397"/>
</g>
<g style="fill:rgb(0%,0%,0%);fill-opacity:1;">
  <use xlink:href="#glyph0-13" x="603.64017" y="403.423397"/>
</g>
<g style="fill:rgb(0%,0%,0%);fill-opacity:1;">
  <use xlink:href="#glyph0-8" x="291.133838" y="573.307795"/>
</g>
<g style="fill:rgb(0%,0%,0%);fill-opacity:1;">
  <use xlink:href="#glyph0-9" x="298.049874" y="573.307795"/>
  <use xlink:href="#glyph0-10" x="303.304072" y="573.307795"/>
</g>
<g style="fill:rgb(0%,0%,0%);fill-opacity:1;">
  <use xlink:href="#glyph0-2" x="309.105581" y="573.307795"/>
</g>
<g style="fill:rgb(0%,0%,0%);fill-opacity:1;">
  <use xlink:href="#glyph0-11" x="316.83761" y="573.307795"/>
</g>
<path style="fill:none;stroke-width:0.3985;stroke-linecap:butt;stroke-linejoin:miter;stroke:rgb(0%,0%,0%);stroke-opacity:1;stroke-miterlimit:10;" d="M -285.584643 -42.041015 C -302.350104 62.67761 -270.74719 145.405988 -188.437265 212.284024 " transform="matrix(0.998845,0,0,-0.998845,305.782087,287.7888)"/>
<path style="fill:none;stroke-width:0.31879;stroke-linecap:round;stroke-linejoin:round;stroke:rgb(0%,0%,0%);stroke-opacity:1;stroke-miterlimit:10;" d="M -1.194537 1.594358 C -1.09619 0.996395 0.00000921977 0.100066 0.297047 0.00102508 C -0.00000759745 -0.0979652 -1.094351 -0.996117 -1.194036 -1.594063 " transform="matrix(0.157887,0.986259,0.986259,-0.157887,20.526308,329.781415)"/>
<path style="fill:none;stroke-width:0.31879;stroke-linecap:round;stroke-linejoin:round;stroke:rgb(0%,0%,0%);stroke-opacity:1;stroke-miterlimit:10;" d="M -1.196396 1.595023 C -1.098331 0.996297 0.0010142 0.0979954 0.300184 0.00104656 C 0.00195796 -0.0993026 -1.095154 -0.996792 -1.197422 -1.593995 " transform="matrix(0.775164,-0.629852,-0.629852,-0.775164,117.560936,75.748476)"/>
<g style="fill:rgb(0%,0%,0%);fill-opacity:1;">
  <use xlink:href="#glyph0-7" x="36.896955" y="196.585617"/>
  <use xlink:href="#glyph0-5" x="41.315257" y="196.585617"/>
  <use xlink:href="#glyph0-14" x="46.290823" y="196.585617"/>
  <use xlink:href="#glyph0-10" x="54.580116" y="196.585617"/>
  <use xlink:href="#glyph0-15" x="60.112945" y="196.585617"/>
  <use xlink:href="#glyph0-7" x="65.08851" y="196.585617"/>
  <use xlink:href="#glyph0-16" x="69.506813" y="196.585617"/>
</g>
<g style="fill:rgb(0%,0%,0%);fill-opacity:1;">
  <use xlink:href="#glyph0-3" x="35.503786" y="208.526977"/>
  <use xlink:href="#glyph0-6" x="39.374776" y="208.526977"/>
  <use xlink:href="#glyph0-17" x="42.141191" y="208.526977"/>
  <use xlink:href="#glyph0-7" x="47.67402" y="208.526977"/>
  <use xlink:href="#glyph0-15" x="52.092322" y="208.526977"/>
  <use xlink:href="#glyph0-3" x="57.067888" y="208.526977"/>
  <use xlink:href="#glyph0-6" x="60.938878" y="208.526977"/>
  <use xlink:href="#glyph0-5" x="63.705293" y="208.526977"/>
  <use xlink:href="#glyph0-18" x="68.680858" y="208.526977"/>
</g>
<path style="fill:none;stroke-width:0.3985;stroke-linecap:butt;stroke-linejoin:miter;stroke:rgb(0%,0%,0%);stroke-opacity:1;stroke-miterlimit:10;" d="M -139.384506 239.049318 C -7.474315 287.930002 107.834668 268.278395 216.123823 178.479349 " transform="matrix(0.998845,0,0,-0.998845,305.782087,287.7888)"/>
<path style="fill:none;stroke-width:0.31879;stroke-linecap:round;stroke-linejoin:round;stroke:rgb(0%,0%,0%);stroke-opacity:1;stroke-miterlimit:10;" d="M -1.194715 1.592131 C -1.094426 0.996073 -0.000554244 0.0985804 0.300575 -0.000489761 C 0.00158848 -0.0982441 -1.094872 -0.997434 -1.195075 -1.594275 " transform="matrix(-0.936557,0.347039,0.347039,0.936557,166.55902,49.017241)"/>
<path style="fill:none;stroke-width:0.31879;stroke-linecap:round;stroke-linejoin:round;stroke:rgb(0%,0%,0%);stroke-opacity:1;stroke-miterlimit:10;" d="M -1.193975 1.593831 C -1.094276 0.995691 -0.000305819 0.0991899 0.298908 0.00181782 C 0.000717199 -0.0981091 -1.094105 -0.995803 -1.197212 -1.594453 " transform="matrix(0.768841,0.637543,0.637543,-0.768841,521.655747,109.513956)"/>
<g style="fill:rgb(0%,0%,0%);fill-opacity:1;">
  <use xlink:href="#glyph0-19" x="309.037662" y="37.799624"/>
  <use xlink:href="#glyph0-16" x="318.162849" y="37.799624"/>
  <use xlink:href="#glyph0-3" x="321.476576" y="37.799624"/>
  <use xlink:href="#glyph0-1" x="325.347566" y="37.799624"/>
  <use xlink:href="#glyph0-2" x="330.880395" y="37.799624"/>
  <use xlink:href="#glyph0-5" x="335.298698" y="37.799624"/>
  <use xlink:href="#glyph0-4" x="340.274264" y="37.799624"/>
  <use xlink:href="#glyph0-9" x="344.175107" y="37.799624"/>
</g>
<path style="fill:none;stroke-width:0.3985;stroke-linecap:butt;stroke-linejoin:miter;stroke:rgb(0%,0%,0%);stroke-opacity:1;stroke-miterlimit:10;" d="M 234.183748 161.627852 C 303.73675 81.777799 320.674285 -4.849615 286.298637 -105.012195 " transform="matrix(0.998845,0,0,-0.998845,305.782087,287.7888)"/>
<path style="fill:none;stroke-width:0.31879;stroke-linecap:round;stroke-linejoin:round;stroke:rgb(0%,0%,0%);stroke-opacity:1;stroke-miterlimit:10;" d="M -1.195705 1.59217 C -1.096515 0.997494 -0.000738472 0.100051 0.300064 -0.00118627 C 0.00191407 -0.0993459 -1.095009 -0.995429 -1.195217 -1.592758 " transform="matrix(-0.656051,-0.753159,-0.753159,0.656051,539.695964,126.347868)"/>
<path style="fill:none;stroke-width:0.31879;stroke-linecap:round;stroke-linejoin:round;stroke:rgb(0%,0%,0%);stroke-opacity:1;stroke-miterlimit:10;" d="M -1.194695 1.595005 C -1.096656 0.996045 0.000832032 0.0991867 0.299771 -0.000827013 C -0.00112186 -0.0999475 -1.095161 -0.996347 -1.196256 -1.593353 " transform="matrix(-0.324205,0.944757,0.944757,0.324205,591.750312,392.677995)"/>
<g style="fill:rgb(0%,0%,0%);fill-opacity:1;">
  <use xlink:href="#glyph0-8" x="560.159438" y="262.337974"/>
  <use xlink:href="#glyph0-16" x="567.344154" y="262.337974"/>
  <use xlink:href="#glyph0-20" x="570.657881" y="262.337974"/>
  <use xlink:href="#glyph0-21" x="576.19071" y="262.337974"/>
  <use xlink:href="#glyph0-15" x="581.723539" y="262.337974"/>
  <use xlink:href="#glyph0-22" x="586.699105" y="262.337974"/>
  <use xlink:href="#glyph0-6" x="589.46552" y="262.337974"/>
  <use xlink:href="#glyph0-3" x="592.231934" y="262.337974"/>
</g>
<g style="fill:rgb(0%,0%,0%);fill-opacity:1;">
  <use xlink:href="#glyph0-9" x="595.834244" y="262.337974"/>
</g>
<path style="fill:none;stroke-width:0.3985;stroke-linecap:butt;stroke-linejoin:miter;stroke:rgb(0%,0%,0%);stroke-opacity:1;stroke-miterlimit:10;" d="M 278.860357 -121.734637 C 222.420159 -227.039877 138.060991 -279.373769 18.641791 -283.14766 " transform="matrix(0.998845,0,0,-0.998845,305.782087,287.7888)"/>
<path style="fill:none;stroke-width:0.31879;stroke-linecap:round;stroke-linejoin:round;stroke:rgb(0%,0%,0%);stroke-opacity:1;stroke-miterlimit:10;" d="M -1.196392 1.594372 C -1.097182 0.995273 -0.000999404 0.100717 0.297589 -0.00105684 C -0.000597885 -0.0987412 -1.095014 -0.995866 -1.195262 -1.595367 " transform="matrix(0.471794,-0.880342,-0.880342,-0.471794,584.319606,409.382576)"/>
<path style="fill:none;stroke-width:0.31879;stroke-linecap:round;stroke-linejoin:round;stroke:rgb(0%,0%,0%);stroke-opacity:1;stroke-miterlimit:10;" d="M -1.196545 1.594151 C -1.094153 0.996162 0.00052128 0.100726 0.298667 0.00130465 C -0.00187276 -0.0987528 -1.094517 -0.995463 -1.195637 -1.594844 " transform="matrix(-0.998315,0.0315635,0.0315635,0.998315,324.403591,570.610364)"/>
<g style="fill:rgb(0%,0%,0%);fill-opacity:1;">
  <use xlink:href="#glyph0-5" x="430.132445" y="512.411072"/>
  <use xlink:href="#glyph0-4" x="435.108011" y="512.411072"/>
  <use xlink:href="#glyph0-6" x="439.008854" y="512.411072"/>
  <use xlink:href="#glyph0-2" x="441.775269" y="512.411072"/>
  <use xlink:href="#glyph0-18" x="446.193571" y="512.411072"/>
</g>
<g style="fill:rgb(0%,0%,0%);fill-opacity:1;">
  <use xlink:href="#glyph0-3" x="451.457719" y="512.411072"/>
  <use xlink:href="#glyph0-6" x="455.32871" y="512.411072"/>
  <use xlink:href="#glyph0-23" x="458.095124" y="512.411072"/>
  <use xlink:href="#glyph0-5" x="461.14017" y="512.411072"/>
  <use xlink:href="#glyph0-22" x="466.115736" y="512.411072"/>
  <use xlink:href="#glyph0-20" x="468.882151" y="512.411072"/>
</g>
<g style="fill:rgb(0%,0%,0%);fill-opacity:1;">
  <use xlink:href="#glyph0-15" x="433.748583" y="524.352432"/>
  <use xlink:href="#glyph0-7" x="438.724148" y="524.352432"/>
  <use xlink:href="#glyph0-3" x="443.142451" y="524.352432"/>
  <use xlink:href="#glyph0-6" x="447.013441" y="524.352432"/>
  <use xlink:href="#glyph0-5" x="449.779855" y="524.352432"/>
  <use xlink:href="#glyph0-18" x="454.755421" y="524.352432"/>
</g>
<g style="fill:rgb(0%,0%,0%);fill-opacity:1;">
  <use xlink:href="#glyph2-6" x="463.601977" y="524.352432"/>
</g>
<path style="fill:none;stroke-width:0.3985;stroke-linecap:butt;stroke-linejoin:miter;stroke:rgb(0%,0%,0%);stroke-opacity:1;stroke-miterlimit:10;" d="M -18.639556 -280.640857 C -147.405491 -260.402635 -230.900379 -192.957537 -277.759197 -71.320932 " transform="matrix(0.998845,0,0,-0.998845,305.782087,287.7888)"/>
<path style="fill:none;stroke-width:0.31879;stroke-linecap:round;stroke-linejoin:round;stroke:rgb(0%,0%,0%);stroke-opacity:1;stroke-miterlimit:10;" d="M -1.194673 1.594476 C -1.096701 0.996241 -0.00166789 0.0994217 0.298968 0.000187413 C 0.00164524 -0.098003 -1.096519 -0.995061 -1.196579 -1.592745 " transform="matrix(0.986699,0.155061,0.155061,-0.986699,287.165917,568.10617)"/>
<path style="fill:none;stroke-width:0.31879;stroke-linecap:round;stroke-linejoin:round;stroke:rgb(0%,0%,0%);stroke-opacity:1;stroke-miterlimit:10;" d="M -1.196548 1.593258 C -1.095211 0.996823 0.00134928 0.100843 0.297523 -0.000672196 C -0.000438331 -0.0996357 -1.096515 -0.997579 -1.195656 -1.592227 " transform="matrix(-0.359035,-0.932062,-0.932062,0.359035,28.344476,359.027552)"/>
<g style="fill:rgb(0%,0%,0%);fill-opacity:1;">
  <use xlink:href="#glyph0-24" x="130.625937" y="495.946604"/>
  <use xlink:href="#glyph0-16" x="136.158766" y="495.946604"/>
  <use xlink:href="#glyph0-20" x="139.472492" y="495.946604"/>
  <use xlink:href="#glyph0-21" x="145.005322" y="495.946604"/>
  <use xlink:href="#glyph0-15" x="150.538151" y="495.946604"/>
  <use xlink:href="#glyph0-22" x="155.513716" y="495.946604"/>
  <use xlink:href="#glyph0-6" x="158.280131" y="495.946604"/>
  <use xlink:href="#glyph0-3" x="161.046545" y="495.946604"/>
</g>
<g style="fill:rgb(0%,0%,0%);fill-opacity:1;">
  <use xlink:href="#glyph0-9" x="164.648855" y="495.946604"/>
</g>
<g clip-path="url(#clip1)" clip-rule="nonzero">
<g clip-path="url(#clip2)" clip-rule="nonzero">
<path style="fill:none;stroke-width:0.3985;stroke-linecap:butt;stroke-linejoin:miter;stroke:rgb(0%,0%,50%);stroke-opacity:1;stroke-miterlimit:10;" d="M -252.335297 -56.694661 C -252.335297 -51.997829 -256.144384 -48.188741 -260.841216 -48.188741 C -265.538048 -48.188741 -269.343225 -51.997829 -269.343225 -56.694661 C -269.343225 -61.391493 -265.538048 -65.19667 -260.841216 -65.19667 C -256.144384 -65.19667 -252.335297 -61.391493 -252.335297 -56.694661 Z M -252.335297 -56.694661 " transform="matrix(0.998845,0,0,-0.998845,305.782087,287.7888)"/>
</g>
</g>
<g clip-path="url(#clip3)" clip-rule="nonzero">
<g clip-path="url(#clip4)" clip-rule="nonzero">
<path style="fill:none;stroke-width:0.3985;stroke-linecap:butt;stroke-linejoin:miter;stroke:rgb(0%,0%,50%);stroke-opacity:1;stroke-miterlimit:10;" d="M -243.833288 -56.694661 C -243.833288 -47.300997 -251.447552 -39.686733 -260.841216 -39.686733 C -270.230969 -39.686733 -277.845234 -47.300997 -277.845234 -56.694661 C -277.845234 -66.088325 -270.230969 -73.702589 -260.841216 -73.702589 C -251.447552 -73.702589 -243.833288 -66.088325 -243.833288 -56.694661 Z M -243.833288 -56.694661 " transform="matrix(0.998845,0,0,-0.998845,305.782087,287.7888)"/>
</g>
</g>
<g clip-path="url(#clip5)" clip-rule="nonzero">
<g clip-path="url(#clip6)" clip-rule="nonzero">
<path style="fill:none;stroke-width:0.3985;stroke-linecap:butt;stroke-linejoin:miter;stroke:rgb(0%,0%,50%);stroke-opacity:1;stroke-miterlimit:10;" d="M -235.327368 -56.694661 C -235.327368 -42.604165 -246.75072 -31.180813 -260.841216 -31.180813 C -274.927801 -31.180813 -286.351153 -42.604165 -286.351153 -56.694661 C -286.351153 -70.781246 -274.927801 -82.204598 -260.841216 -82.204598 C -246.75072 -82.204598 -235.327368 -70.781246 -235.327368 -56.694661 Z M -235.327368 -56.694661 " transform="matrix(0.998845,0,0,-0.998845,305.782087,287.7888)"/>
</g>
</g>
<g clip-path="url(#clip7)" clip-rule="nonzero">
<g clip-path="url(#clip8)" clip-rule="nonzero">
<path style="fill:none;stroke-width:0.3985;stroke-linecap:butt;stroke-linejoin:miter;stroke:rgb(0%,0%,50%);stroke-opacity:1;stroke-miterlimit:10;" d="M -226.825359 -56.694661 C -226.825359 -37.907333 -242.053889 -22.678804 -260.841216 -22.678804 C -279.624633 -22.678804 -294.853162 -37.907333 -294.853162 -56.694661 C -294.853162 -75.478078 -279.624633 -90.706607 -260.841216 -90.706607 C -242.053889 -90.706607 -226.825359 -75.478078 -226.825359 -56.694661 Z M -226.825359 -56.694661 " transform="matrix(0.998845,0,0,-0.998845,305.782087,287.7888)"/>
</g>
</g>
<g clip-path="url(#clip9)" clip-rule="nonzero">
<g clip-path="url(#clip10)" clip-rule="nonzero">
<path style="fill:none;stroke-width:0.3985;stroke-linecap:butt;stroke-linejoin:miter;stroke:rgb(0%,0%,50%);stroke-opacity:1;stroke-miterlimit:10;" d="M -218.31944 -56.694661 C -218.31944 -33.210502 -237.357057 -14.176796 -260.841216 -14.176796 C -284.321465 -14.176796 -303.359082 -33.210502 -303.359082 -56.694661 C -303.359082 -80.17491 -284.321465 -99.212526 -260.841216 -99.212526 C -237.357057 -99.212526 -218.31944 -80.17491 -218.31944 -56.694661 Z M -218.31944 -56.694661 " transform="matrix(0.998845,0,0,-0.998845,305.782087,287.7888)"/>
</g>
</g>
<g clip-path="url(#clip11)" clip-rule="nonzero">
<g clip-path="url(#clip12)" clip-rule="nonzero">
<path style="fill:none;stroke-width:0.3985;stroke-linecap:butt;stroke-linejoin:miter;stroke:rgb(0%,0%,50%);stroke-opacity:1;stroke-miterlimit:10;" d="M -209.817431 -56.694661 C -209.817431 -28.51367 -232.660225 -5.670876 -260.841216 -5.670876 C -289.018297 -5.670876 -311.86109 -28.51367 -311.86109 -56.694661 C -311.86109 -84.871742 -289.018297 -107.714535 -260.841216 -107.714535 C -232.660225 -107.714535 -209.817431 -84.871742 -209.817431 -56.694661 Z M -209.817431 -56.694661 " transform="matrix(0.998845,0,0,-0.998845,305.782087,287.7888)"/>
</g>
</g>
<g clip-path="url(#clip13)" clip-rule="nonzero">
<g clip-path="url(#clip14)" clip-rule="nonzero">
<path style="fill:none;stroke-width:0.3985;stroke-linecap:butt;stroke-linejoin:miter;stroke:rgb(0%,0%,50%);stroke-opacity:1;stroke-miterlimit:10;" d="M -161.578113 212.573421 C -161.578113 217.270253 -165.38329 221.079341 -170.080121 221.079341 C -174.776953 221.079341 -178.586041 217.270253 -178.586041 212.573421 C -178.586041 207.876589 -174.776953 204.071413 -170.080121 204.071413 C -165.38329 204.071413 -161.578113 207.876589 -161.578113 212.573421 Z M -161.578113 212.573421 " transform="matrix(0.998845,0,0,-0.998845,305.782087,287.7888)"/>
</g>
</g>
<g clip-path="url(#clip15)" clip-rule="nonzero">
<g clip-path="url(#clip16)" clip-rule="nonzero">
<path style="fill:none;stroke-width:0.3985;stroke-linecap:butt;stroke-linejoin:miter;stroke:rgb(0%,0%,50%);stroke-opacity:1;stroke-miterlimit:10;" d="M -153.072193 212.573421 C -153.072193 221.967085 -160.686458 229.58135 -170.080121 229.58135 C -179.473785 229.58135 -187.08805 221.967085 -187.08805 212.573421 C -187.08805 203.179757 -179.473785 195.565493 -170.080121 195.565493 C -160.686458 195.565493 -153.072193 203.179757 -153.072193 212.573421 Z M -153.072193 212.573421 " transform="matrix(0.998845,0,0,-0.998845,305.782087,287.7888)"/>
</g>
</g>
<g clip-path="url(#clip17)" clip-rule="nonzero">
<g clip-path="url(#clip18)" clip-rule="nonzero">
<path style="fill:none;stroke-width:0.3985;stroke-linecap:butt;stroke-linejoin:miter;stroke:rgb(0%,0%,50%);stroke-opacity:1;stroke-miterlimit:10;" d="M -144.570184 212.573421 C -144.570184 226.663917 -155.989626 238.087269 -170.080121 238.087269 C -184.170617 238.087269 -195.590059 226.663917 -195.590059 212.573421 C -195.590059 198.486836 -184.170617 187.063484 -170.080121 187.063484 C -155.989626 187.063484 -144.570184 198.486836 -144.570184 212.573421 Z M -144.570184 212.573421 " transform="matrix(0.998845,0,0,-0.998845,305.782087,287.7888)"/>
</g>
</g>
<g clip-path="url(#clip19)" clip-rule="nonzero">
<g clip-path="url(#clip20)" clip-rule="nonzero">
<path style="fill:none;stroke-width:0.3985;stroke-linecap:butt;stroke-linejoin:miter;stroke:rgb(0%,0%,50%);stroke-opacity:1;stroke-miterlimit:10;" d="M -136.064265 212.573421 C -136.064265 231.360749 -151.296705 246.589278 -170.080121 246.589278 C -188.867449 246.589278 -204.095978 231.360749 -204.095978 212.573421 C -204.095978 193.790004 -188.867449 178.561475 -170.080121 178.561475 C -151.296705 178.561475 -136.064265 193.790004 -136.064265 212.573421 Z M -136.064265 212.573421 " transform="matrix(0.998845,0,0,-0.998845,305.782087,287.7888)"/>
</g>
</g>
<g clip-path="url(#clip21)" clip-rule="nonzero">
<g clip-path="url(#clip22)" clip-rule="nonzero">
<path style="fill:none;stroke-width:0.3985;stroke-linecap:butt;stroke-linejoin:miter;stroke:rgb(0%,0%,50%);stroke-opacity:1;stroke-miterlimit:10;" d="M -127.562256 212.573421 C -127.562256 236.057581 -146.599873 255.091287 -170.080121 255.091287 C -193.564281 255.091287 -212.597987 236.057581 -212.597987 212.573421 C -212.597987 189.093173 -193.564281 170.055556 -170.080121 170.055556 C -146.599873 170.055556 -127.562256 189.093173 -127.562256 212.573421 Z M -127.562256 212.573421 " transform="matrix(0.998845,0,0,-0.998845,305.782087,287.7888)"/>
</g>
</g>
<g clip-path="url(#clip23)" clip-rule="nonzero">
<g clip-path="url(#clip24)" clip-rule="nonzero">
<path style="fill:none;stroke-width:0.3985;stroke-linecap:butt;stroke-linejoin:miter;stroke:rgb(0%,0%,50%);stroke-opacity:1;stroke-miterlimit:10;" d="M -119.060247 212.573421 C -119.060247 240.754413 -141.903041 263.597206 -170.080121 263.597206 C -198.261113 263.597206 -221.103906 240.754413 -221.103906 212.573421 C -221.103906 184.396341 -198.261113 161.553547 -170.080121 161.553547 C -141.903041 161.553547 -119.060247 184.396341 -119.060247 212.573421 Z M -119.060247 212.573421 " transform="matrix(0.998845,0,0,-0.998845,305.782087,287.7888)"/>
</g>
</g>
<g clip-path="url(#clip25)" clip-rule="nonzero">
<g clip-path="url(#clip26)" clip-rule="nonzero">
<path style="fill:none;stroke-width:0.3985;stroke-linecap:butt;stroke-linejoin:miter;stroke:rgb(0%,0%,50%);stroke-opacity:1;stroke-miterlimit:10;" d="M 235.278763 161.971999 C 235.278763 166.668831 231.469675 170.477919 226.772843 170.477919 C 222.076012 170.477919 218.270835 166.668831 218.270835 161.971999 C 218.270835 157.275167 222.076012 153.46999 226.772843 153.46999 C 231.469675 153.46999 235.278763 157.275167 235.278763 161.971999 Z M 235.278763 161.971999 " transform="matrix(0.998845,0,0,-0.998845,305.782087,287.7888)"/>
</g>
</g>
<g clip-path="url(#clip27)" clip-rule="nonzero">
<g clip-path="url(#clip28)" clip-rule="nonzero">
<path style="fill:none;stroke-width:0.3985;stroke-linecap:butt;stroke-linejoin:miter;stroke:rgb(0%,0%,50%);stroke-opacity:1;stroke-miterlimit:10;" d="M 243.780772 161.971999 C 243.780772 171.365663 236.166507 178.979928 226.772843 178.979928 C 217.38309 178.979928 209.768826 171.365663 209.768826 161.971999 C 209.768826 152.578335 217.38309 144.964071 226.772843 144.964071 C 236.166507 144.964071 243.780772 152.578335 243.780772 161.971999 Z M 243.780772 161.971999 " transform="matrix(0.998845,0,0,-0.998845,305.782087,287.7888)"/>
</g>
</g>
<g clip-path="url(#clip29)" clip-rule="nonzero">
<g clip-path="url(#clip30)" clip-rule="nonzero">
<path style="fill:none;stroke-width:0.3985;stroke-linecap:butt;stroke-linejoin:miter;stroke:rgb(0%,0%,50%);stroke-opacity:1;stroke-miterlimit:10;" d="M 252.286691 161.971999 C 252.286691 176.062495 240.863339 187.485847 226.772843 187.485847 C 212.686258 187.485847 201.262906 176.062495 201.262906 161.971999 C 201.262906 147.885414 212.686258 136.462062 226.772843 136.462062 C 240.863339 136.462062 252.286691 147.885414 252.286691 161.971999 Z M 252.286691 161.971999 " transform="matrix(0.998845,0,0,-0.998845,305.782087,287.7888)"/>
</g>
</g>
<g clip-path="url(#clip31)" clip-rule="nonzero">
<g clip-path="url(#clip32)" clip-rule="nonzero">
<path style="fill:none;stroke-width:0.3985;stroke-linecap:butt;stroke-linejoin:miter;stroke:rgb(0%,0%,50%);stroke-opacity:1;stroke-miterlimit:10;" d="M 260.7887 161.971999 C 260.7887 180.759327 245.560171 195.987856 226.772843 195.987856 C 207.989427 195.987856 192.760898 180.759327 192.760898 161.971999 C 192.760898 143.188582 207.989427 127.960053 226.772843 127.960053 C 245.560171 127.960053 260.7887 143.188582 260.7887 161.971999 Z M 260.7887 161.971999 " transform="matrix(0.998845,0,0,-0.998845,305.782087,287.7888)"/>
</g>
</g>
<g clip-path="url(#clip33)" clip-rule="nonzero">
<g clip-path="url(#clip34)" clip-rule="nonzero">
<path style="fill:none;stroke-width:0.3985;stroke-linecap:butt;stroke-linejoin:miter;stroke:rgb(0%,0%,50%);stroke-opacity:1;stroke-miterlimit:10;" d="M 269.29462 161.971999 C 269.29462 185.456159 250.257003 204.489865 226.772843 204.489865 C 203.292595 204.489865 184.254978 185.456159 184.254978 161.971999 C 184.254978 138.49175 203.292595 119.454134 226.772843 119.454134 C 250.257003 119.454134 269.29462 138.49175 269.29462 161.971999 Z M 269.29462 161.971999 " transform="matrix(0.998845,0,0,-0.998845,305.782087,287.7888)"/>
</g>
</g>
<g clip-path="url(#clip35)" clip-rule="nonzero">
<g clip-path="url(#clip36)" clip-rule="nonzero">
<path style="fill:none;stroke-width:0.3985;stroke-linecap:butt;stroke-linejoin:miter;stroke:rgb(0%,0%,50%);stroke-opacity:1;stroke-miterlimit:10;" d="M 277.796628 161.971999 C 277.796628 190.152991 254.953835 212.995784 226.772843 212.995784 C 198.595763 212.995784 175.752969 190.152991 175.752969 161.971999 C 175.752969 133.794919 198.595763 110.952125 226.772843 110.952125 C 254.953835 110.952125 277.796628 133.794919 277.796628 161.971999 Z M 277.796628 161.971999 " transform="matrix(0.998845,0,0,-0.998845,305.782087,287.7888)"/>
</g>
</g>
<g clip-path="url(#clip37)" clip-rule="nonzero">
<g clip-path="url(#clip38)" clip-rule="nonzero">
<path style="fill:none;stroke-width:0.3985;stroke-linecap:butt;stroke-linejoin:miter;stroke:rgb(0%,0%,50%);stroke-opacity:1;stroke-miterlimit:10;" d="M 266.662673 -113.389059 C 266.662673 -108.692227 262.857496 -104.88314 258.160664 -104.88314 C 253.463832 -104.88314 249.654745 -108.692227 249.654745 -113.389059 C 249.654745 -118.08198 253.463832 -121.891068 258.160664 -121.891068 C 262.857496 -121.891068 266.662673 -118.08198 266.662673 -113.389059 Z M 266.662673 -113.389059 " transform="matrix(0.998845,0,0,-0.998845,305.782087,287.7888)"/>
</g>
</g>
<g clip-path="url(#clip39)" clip-rule="nonzero">
<g clip-path="url(#clip40)" clip-rule="nonzero">
<path style="fill:none;stroke-width:0.3985;stroke-linecap:butt;stroke-linejoin:miter;stroke:rgb(0%,0%,50%);stroke-opacity:1;stroke-miterlimit:10;" d="M 275.168593 -113.389059 C 275.168593 -103.995395 267.554328 -96.381131 258.160664 -96.381131 C 248.767 -96.381131 241.152736 -103.995395 241.152736 -113.389059 C 241.152736 -122.778812 248.767 -130.393077 258.160664 -130.393077 C 267.554328 -130.393077 275.168593 -122.778812 275.168593 -113.389059 Z M 275.168593 -113.389059 " transform="matrix(0.998845,0,0,-0.998845,305.782087,287.7888)"/>
</g>
</g>
<g clip-path="url(#clip41)" clip-rule="nonzero">
<g clip-path="url(#clip42)" clip-rule="nonzero">
<path style="fill:none;stroke-width:0.3985;stroke-linecap:butt;stroke-linejoin:miter;stroke:rgb(0%,0%,50%);stroke-opacity:1;stroke-miterlimit:10;" d="M 283.670601 -113.389059 C 283.670601 -99.298563 272.25116 -87.875211 258.160664 -87.875211 C 244.070169 -87.875211 232.646816 -99.298563 232.646816 -113.389059 C 232.646816 -127.475644 244.070169 -138.898996 258.160664 -138.898996 C 272.25116 -138.898996 283.670601 -127.475644 283.670601 -113.389059 Z M 283.670601 -113.389059 " transform="matrix(0.998845,0,0,-0.998845,305.782087,287.7888)"/>
</g>
</g>
<g clip-path="url(#clip43)" clip-rule="nonzero">
<g clip-path="url(#clip44)" clip-rule="nonzero">
<path style="fill:none;stroke-width:0.3985;stroke-linecap:butt;stroke-linejoin:miter;stroke:rgb(0%,0%,50%);stroke-opacity:1;stroke-miterlimit:10;" d="M 292.17261 -113.389059 C 292.17261 -94.601731 276.944081 -79.373202 258.160664 -79.373202 C 239.373337 -79.373202 224.144808 -94.601731 224.144808 -113.389059 C 224.144808 -132.172476 239.373337 -147.401005 258.160664 -147.401005 C 276.944081 -147.401005 292.17261 -132.172476 292.17261 -113.389059 Z M 292.17261 -113.389059 " transform="matrix(0.998845,0,0,-0.998845,305.782087,287.7888)"/>
</g>
</g>
<g clip-path="url(#clip45)" clip-rule="nonzero">
<g clip-path="url(#clip46)" clip-rule="nonzero">
<path style="fill:none;stroke-width:0.3985;stroke-linecap:butt;stroke-linejoin:miter;stroke:rgb(0%,0%,50%);stroke-opacity:1;stroke-miterlimit:10;" d="M 300.67853 -113.389059 C 300.67853 -89.9049 281.640913 -70.867283 258.160664 -70.867283 C 234.676505 -70.867283 215.642799 -89.9049 215.642799 -113.389059 C 215.642799 -136.869308 234.676505 -155.906925 258.160664 -155.906925 C 281.640913 -155.906925 300.67853 -136.869308 300.67853 -113.389059 Z M 300.67853 -113.389059 " transform="matrix(0.998845,0,0,-0.998845,305.782087,287.7888)"/>
</g>
</g>
<g clip-path="url(#clip47)" clip-rule="nonzero">
<g clip-path="url(#clip48)" clip-rule="nonzero">
<path style="fill:none;stroke-width:0.3985;stroke-linecap:butt;stroke-linejoin:miter;stroke:rgb(0%,0%,50%);stroke-opacity:1;stroke-miterlimit:10;" d="M 309.180539 -113.389059 C 309.180539 -85.208068 286.337745 -62.365274 258.160664 -62.365274 C 229.979673 -62.365274 207.136879 -85.208068 207.136879 -113.389059 C 207.136879 -141.56614 229.979673 -164.408933 258.160664 -164.408933 C 286.337745 -164.408933 309.180539 -141.56614 309.180539 -113.389059 Z M 309.180539 -113.389059 " transform="matrix(0.998845,0,0,-0.998845,305.782087,287.7888)"/>
</g>
</g>
<g clip-path="url(#clip49)" clip-rule="nonzero">
<g clip-path="url(#clip50)" clip-rule="nonzero">
<path style="fill:none;stroke-width:0.3985;stroke-linecap:butt;stroke-linejoin:miter;stroke:rgb(0%,0%,50%);stroke-opacity:1;stroke-miterlimit:10;" d="M 8.505082 -275.525573 C 8.505082 -270.828742 4.695994 -267.019654 -0.000838018 -267.019654 C -4.69767 -267.019654 -8.502847 -270.828742 -8.502847 -275.525573 C -8.502847 -280.222405 -4.69767 -284.027582 -0.000838018 -284.027582 C 4.695994 -284.027582 8.505082 -280.222405 8.505082 -275.525573 Z M 8.505082 -275.525573 " transform="matrix(0.998845,0,0,-0.998845,305.782087,287.7888)"/>
</g>
</g>
<g clip-path="url(#clip51)" clip-rule="nonzero">
<g clip-path="url(#clip52)" clip-rule="nonzero">
<path style="fill:none;stroke-width:0.3985;stroke-linecap:butt;stroke-linejoin:miter;stroke:rgb(0%,0%,50%);stroke-opacity:1;stroke-miterlimit:10;" d="M 17.00709 -275.525573 C 17.00709 -266.13191 9.392826 -258.517645 -0.000838018 -258.517645 C -9.394502 -258.517645 -17.008766 -266.13191 -17.008766 -275.525573 C -17.008766 -284.919237 -9.394502 -292.533502 -0.000838018 -292.533502 C 9.392826 -292.533502 17.00709 -284.919237 17.00709 -275.525573 Z M 17.00709 -275.525573 " transform="matrix(0.998845,0,0,-0.998845,305.782087,287.7888)"/>
</g>
</g>
<g clip-path="url(#clip53)" clip-rule="nonzero">
<g clip-path="url(#clip54)" clip-rule="nonzero">
<path style="fill:none;stroke-width:0.3985;stroke-linecap:butt;stroke-linejoin:miter;stroke:rgb(0%,0%,50%);stroke-opacity:1;stroke-miterlimit:10;" d="M 25.509099 -275.525573 C 25.509099 -261.435078 14.089658 -250.015636 -0.000838018 -250.015636 C -14.091334 -250.015636 -25.510775 -261.435078 -25.510775 -275.525573 C -25.510775 -289.616069 -14.091334 -301.035511 -0.000838018 -301.035511 C 14.089658 -301.035511 25.509099 -289.616069 25.509099 -275.525573 Z M 25.509099 -275.525573 " transform="matrix(0.998845,0,0,-0.998845,305.782087,287.7888)"/>
</g>
</g>
<g clip-path="url(#clip55)" clip-rule="nonzero">
<g clip-path="url(#clip56)" clip-rule="nonzero">
<path style="fill:none;stroke-width:0.3985;stroke-linecap:butt;stroke-linejoin:miter;stroke:rgb(0%,0%,50%);stroke-opacity:1;stroke-miterlimit:10;" d="M 34.015019 -275.525573 C 34.015019 -256.738246 18.78649 -241.509717 -0.000838018 -241.509717 C -18.784255 -241.509717 -34.012784 -256.738246 -34.012784 -275.525573 C -34.012784 -294.30899 -18.784255 -309.54143 -0.000838018 -309.54143 C 18.78649 -309.54143 34.015019 -294.30899 34.015019 -275.525573 Z M 34.015019 -275.525573 " transform="matrix(0.998845,0,0,-0.998845,305.782087,287.7888)"/>
</g>
</g>
<g clip-path="url(#clip57)" clip-rule="nonzero">
<g clip-path="url(#clip58)" clip-rule="nonzero">
<path style="fill:none;stroke-width:0.3985;stroke-linecap:butt;stroke-linejoin:miter;stroke:rgb(0%,0%,50%);stroke-opacity:1;stroke-miterlimit:10;" d="M 42.517027 -275.525573 C 42.517027 -252.041414 23.483321 -233.007708 -0.000838018 -233.007708 C -23.481087 -233.007708 -42.518703 -252.041414 -42.518703 -275.525573 C -42.518703 -299.005822 -23.481087 -318.043439 -0.000838018 -318.043439 C 23.483321 -318.043439 42.517027 -299.005822 42.517027 -275.525573 Z M 42.517027 -275.525573 " transform="matrix(0.998845,0,0,-0.998845,305.782087,287.7888)"/>
</g>
</g>
<g clip-path="url(#clip59)" clip-rule="nonzero">
<g clip-path="url(#clip60)" clip-rule="nonzero">
<path style="fill:none;stroke-width:0.3985;stroke-linecap:butt;stroke-linejoin:miter;stroke:rgb(0%,0%,50%);stroke-opacity:1;stroke-miterlimit:10;" d="M 51.022947 -275.525573 C 51.022947 -247.344582 28.180153 -224.501788 -0.000838018 -224.501788 C -28.177919 -224.501788 -51.020712 -247.344582 -51.020712 -275.525573 C -51.020712 -303.702654 -28.177919 -326.545448 -0.000838018 -326.545448 C 28.180153 -326.545448 51.022947 -303.702654 51.022947 -275.525573 Z M 51.022947 -275.525573 " transform="matrix(0.998845,0,0,-0.998845,305.782087,287.7888)"/>
</g>
</g>
<path style=" stroke:none;fill-rule:nonzero;fill:rgb(50%,50%,50%);fill-opacity:0.3;" d="M 45.242188 344.417969 C 128.480469 271.101562 157.773438 184.203125 135.898438 75.460938 C 260.367188 170.164062 388.042969 186.445312 532.292969 126.003906 C 489.195312 225.132812 499.34375 314.152344 563.644531 401.046875 C 444.632812 405.472656 361.453125 457.71875 305.78125 562.996094 C 260.207031 437.8125 176.441406 367.539062 45.242188 344.417969 Z M 45.242188 344.417969 "/>
<g clip-path="url(#clip61)" clip-rule="nonzero">
<path style="fill:none;stroke-width:1.19553;stroke-linecap:butt;stroke-linejoin:miter;stroke:rgb(50%,50%,50%);stroke-opacity:1;stroke-miterlimit:10;" d="M -260.841216 -56.694661 C -177.506669 16.706536 -148.179823 103.705473 -170.080121 212.573421 C -45.467422 117.760771 82.356017 101.460692 226.772843 161.971999 C 183.625344 62.72845 193.785519 -26.394034 258.160664 -113.389059 C 139.011307 -117.819959 55.735422 -170.126476 -0.000838018 -275.525573 C -45.627764 -150.197204 -129.490264 -79.842495 -260.841216 -56.694661 Z M -260.841216 -56.694661 " transform="matrix(0.998845,0,0,-0.998845,305.782087,287.7888)"/>
</g>
<g style="fill:rgb(0%,0%,0%);fill-opacity:1;">
  <use xlink:href="#glyph0-10" x="264.683398" y="279.604155"/>
  <use xlink:href="#glyph0-15" x="270.216227" y="279.604155"/>
  <use xlink:href="#glyph0-4" x="275.191793" y="279.604155"/>
  <use xlink:href="#glyph0-15" x="279.092636" y="279.604155"/>
  <use xlink:href="#glyph0-14" x="284.068202" y="279.604155"/>
  <use xlink:href="#glyph0-2" x="292.357495" y="279.604155"/>
  <use xlink:href="#glyph0-3" x="296.775797" y="279.604155"/>
  <use xlink:href="#glyph0-2" x="300.646787" y="279.604155"/>
  <use xlink:href="#glyph0-4" x="305.065089" y="279.604155"/>
</g>
<g style="fill:rgb(0%,0%,0%);fill-opacity:1;">
  <use xlink:href="#glyph0-25" x="312.27966" y="279.604155"/>
  <use xlink:href="#glyph0-10" x="316.200405" y="279.604155"/>
  <use xlink:href="#glyph0-15" x="321.733235" y="279.604155"/>
  <use xlink:href="#glyph0-7" x="326.7088" y="279.604155"/>
  <use xlink:href="#glyph0-2" x="331.127103" y="279.604155"/>
</g>
<g style="fill:rgb(0%,0%,0%);fill-opacity:1;">
  <use xlink:href="#glyph0-5" x="338.859132" y="279.604155"/>
  <use xlink:href="#glyph0-23" x="343.834697" y="279.604155"/>
</g>
<g style="fill:rgb(0%,0%,0%);fill-opacity:1;">
  <use xlink:href="#glyph4-1" x="270.107974" y="300.123385"/>
  <use xlink:href="#glyph4-2" x="285.397683" y="300.123385"/>
  <use xlink:href="#glyph4-3" x="290.771292" y="300.123385"/>
  <use xlink:href="#glyph4-4" x="301.977058" y="300.123385"/>
  <use xlink:href="#glyph4-5" x="310.933072" y="300.123385"/>
  <use xlink:href="#glyph4-6" x="318.284169" y="300.123385"/>
  <use xlink:href="#glyph4-7" x="326.351747" y="300.123385"/>
  <use xlink:href="#glyph4-8" x="332.943374" y="300.123385"/>
</g>
</g>
</svg>
