<svg viewBox="0 0 370.49 257.15" width="370.49" height="257.15" xmlns="http://www.w3.org/2000/svg" xmlns:xlink="http://www.w3.org/1999/xlink">
    <path d="M14.94415,113.38724 C14.94415,121.64076 8.25352,128.33139 0,128.33139 C-8.25352,128.33139 -14.94415,121.64076 -14.94415,113.38724 C-14.94415,105.1337 -8.25352,98.44308 0,98.44308 C8.25352,98.44308 14.94415,105.1337 14.94415,113.38724 Z M0,113.38724" stroke-width="0.3985" stroke-miterlimit="10" fill="none" stroke="#0000ff" transform="matrix(1 0 0 -1 15.14321 185.2672)"/>
    <use xlink:href="#g0" transform="matrix(1 0 0 -1 66.9183 -39.991047)" fill="#000000"/>
    <use xlink:href="#g1" transform="matrix(1 0 0 -1 66.9183 -39.991047)" fill="#000000"/>
    <path d="M14.94415,0 C14.94415,8.25352 8.25352,14.94415 0,14.94415 C-8.25352,14.94415 -14.94415,8.25352 -14.94415,0 C-14.94415,-8.25352 -8.25352,-14.94415 0,-14.94415 C8.25352,-14.94415 14.94415,-8.25352 14.94415,0 Z M0,0" stroke-width="0.3985" stroke-miterlimit="10" fill="none" stroke="#0000ff" transform="matrix(1 0 0 -1 15.14321 185.2672)"/>
    <use xlink:href="#g0" transform="matrix(1 0 0 -1 66.9183 73.39617)" fill="#000000"/>
    <use xlink:href="#g2" transform="matrix(1 0 0 -1 66.9183 73.39617)" fill="#000000"/>
    <path d="M128.37808,-56.69362 C128.37808,-48.41429 121.66655,-41.70276 113.38724,-41.70276 C105.10791,-41.70276 98.39638,-48.41429 98.39638,-56.69362 C98.39638,-64.97293 105.10791,-71.68446 113.38724,-71.68446 C121.66655,-71.68446 128.37808,-64.97293 128.37808,-56.69362 Z M113.38724,-56.69362" stroke-width="0.3985" stroke-miterlimit="10" fill="none" stroke="#ff8000" transform="matrix(1 0 0 -1 15.14321 185.2672)"/>
    <use xlink:href="#g3" transform="matrix(1 0 0 -1 177.40604 132.56668)" fill="#000000"/>
    <use xlink:href="#g4" transform="matrix(1 0 0 -1 177.40604 132.56668)" fill="#000000"/>
    <use xlink:href="#g5" transform="matrix(1 0 0 -1 177.40604 132.56668)" fill="#000000"/>
    <use xlink:href="#g6" transform="matrix(1 0 0 -1 177.40604 132.56668)" fill="#000000"/>
    <use xlink:href="#g7" transform="matrix(1 0 0 -1 177.40604 132.56668)" fill="#000000"/>
    <path d="M128.37808,56.69362 C128.37808,64.97293 121.66655,71.68446 113.38724,71.68446 C105.10791,71.68446 98.39638,64.97293 98.39638,56.69362 C98.39638,48.41429 105.10791,41.70276 113.38724,41.70276 C121.66655,41.70276 128.37808,48.41429 128.37808,56.69362 Z M113.38724,56.69362" stroke-width="0.3985" stroke-miterlimit="10" fill="none" stroke="#ff8000" transform="matrix(1 0 0 -1 15.14321 185.2672)"/>
    <use xlink:href="#g3" transform="matrix(1 0 0 -1 177.40604 19.179455)" fill="#000000"/>
    <use xlink:href="#g4" transform="matrix(1 0 0 -1 177.40604 19.179455)" fill="#000000"/>
    <use xlink:href="#g5" transform="matrix(1 0 0 -1 177.40604 19.179455)" fill="#000000"/>
    <use xlink:href="#g6" transform="matrix(1 0 0 -1 177.40604 19.179455)" fill="#000000"/>
    <use xlink:href="#g8" transform="matrix(1 0 0 -1 177.40604 19.179455)" fill="#000000"/>
    <path d="M128.37808,170.08086 C128.37808,178.36017 121.66655,185.0717 113.38724,185.0717 C105.10791,185.0717 98.39638,178.36017 98.39638,170.08086 C98.39638,161.80153 105.10791,155.09 113.38724,155.09 C121.66655,155.09 128.37808,161.80153 128.37808,170.08086 Z M113.38724,170.08086" stroke-width="0.3985" stroke-miterlimit="10" fill="none" stroke="#ff8000" transform="matrix(1 0 0 -1 15.14321 185.2672)"/>
    <use xlink:href="#g3" transform="matrix(1 0 0 -1 177.40604 -94.207794)" fill="#000000"/>
    <use xlink:href="#g4" transform="matrix(1 0 0 -1 177.40604 -94.207794)" fill="#000000"/>
    <use xlink:href="#g5" transform="matrix(1 0 0 -1 177.40604 -94.207794)" fill="#000000"/>
    <use xlink:href="#g6" transform="matrix(1 0 0 -1 177.40604 -94.207794)" fill="#000000"/>
    <use xlink:href="#g9" transform="matrix(1 0 0 -1 177.40604 -94.207794)" fill="#000000"/>
    <path d="M241.76532,-56.69362 C241.76532,-48.41429 235.05379,-41.70276 226.77448,-41.70276 C218.49515,-41.70276 211.78362,-48.41429 211.78362,-56.69362 C211.78362,-64.97293 218.49515,-71.68446 226.77448,-71.68446 C235.05379,-71.68446 241.76532,-64.97293 241.76532,-56.69362 Z M226.77448,-56.69362" stroke-width="0.3985" stroke-miterlimit="10" fill="none" stroke="#ff8000" transform="matrix(1 0 0 -1 15.14321 185.2672)"/>
    <use xlink:href="#g3" transform="matrix(1 0 0 -1 290.79327 132.56668)" fill="#000000"/>
    <use xlink:href="#g4" transform="matrix(1 0 0 -1 290.79327 132.56668)" fill="#000000"/>
    <use xlink:href="#g10" transform="matrix(1 0 0 -1 290.79327 132.56668)" fill="#000000"/>
    <use xlink:href="#g6" transform="matrix(1 0 0 -1 290.79327 132.56668)" fill="#000000"/>
    <use xlink:href="#g7" transform="matrix(1 0 0 -1 290.79327 132.56668)" fill="#000000"/>
    <path d="M241.76532,56.69362 C241.76532,64.97293 235.05379,71.68446 226.77448,71.68446 C218.49515,71.68446 211.78362,64.97293 211.78362,56.69362 C211.78362,48.41429 218.49515,41.70276 226.77448,41.70276 C235.05379,41.70276 241.76532,48.41429 241.76532,56.69362 Z M226.77448,56.69362" stroke-width="0.3985" stroke-miterlimit="10" fill="none" stroke="#ff8000" transform="matrix(1 0 0 -1 15.14321 185.2672)"/>
    <use xlink:href="#g3" transform="matrix(1 0 0 -1 290.79327 19.179455)" fill="#000000"/>
    <use xlink:href="#g4" transform="matrix(1 0 0 -1 290.79327 19.179455)" fill="#000000"/>
    <use xlink:href="#g10" transform="matrix(1 0 0 -1 290.79327 19.179455)" fill="#000000"/>
    <use xlink:href="#g6" transform="matrix(1 0 0 -1 290.79327 19.179455)" fill="#000000"/>
    <use xlink:href="#g8" transform="matrix(1 0 0 -1 290.79327 19.179455)" fill="#000000"/>
    <path d="M241.76532,170.08086 C241.76532,178.36017 235.05379,185.0717 226.77448,185.0717 C218.49515,185.0717 211.78362,178.36017 211.78362,170.08086 C211.78362,161.80153 218.49515,155.09 226.77448,155.09 C235.05379,155.09 241.76532,161.80153 241.76532,170.08086 Z M226.77448,170.08086" stroke-width="0.3985" stroke-miterlimit="10" fill="none" stroke="#ff8000" transform="matrix(1 0 0 -1 15.14321 185.2672)"/>
    <use xlink:href="#g3" transform="matrix(1 0 0 -1 290.79327 -94.207794)" fill="#000000"/>
    <use xlink:href="#g4" transform="matrix(1 0 0 -1 290.79327 -94.207794)" fill="#000000"/>
    <use xlink:href="#g10" transform="matrix(1 0 0 -1 290.79327 -94.207794)" fill="#000000"/>
    <use xlink:href="#g6" transform="matrix(1 0 0 -1 290.79327 -94.207794)" fill="#000000"/>
    <use xlink:href="#g9" transform="matrix(1 0 0 -1 290.79327 -94.207794)" fill="#000000"/>
    <path d="M355.15256,113.38724 C355.15256,121.66655 348.441,128.37808 340.1617,128.37808 C331.8824,128.37808 325.17084,121.66655 325.17084,113.38724 C325.17084,105.10791 331.8824,98.39638 340.1617,98.39638 C348.441,98.39638 355.15256,105.10791 355.15256,113.38724 Z M340.1617,113.38724" stroke-width="0.3985" stroke-miterlimit="10" fill="none" stroke="#bf0040" transform="matrix(1 0 0 -1 15.14321 185.2672)"/>
    <use xlink:href="#g3" transform="matrix(1 0 0 -1 404.18054 -37.514175)" fill="#000000"/>
    <use xlink:href="#g4" transform="matrix(1 0 0 -1 404.18054 -37.514175)" fill="#000000"/>
    <use xlink:href="#g11" transform="matrix(1 0 0 -1 404.18054 -37.514175)" fill="#000000"/>
    <use xlink:href="#g6" transform="matrix(1 0 0 -1 404.18054 -37.514175)" fill="#000000"/>
    <use xlink:href="#g9" transform="matrix(1 0 0 -1 404.18054 -37.514175)" fill="#000000"/>
    <path d="M355.15256,0 C355.15256,8.27931 348.441,14.99084 340.1617,14.99084 C331.8824,14.99084 325.17084,8.27931 325.17084,0 C325.17084,-8.27931 331.8824,-14.99084 340.1617,-14.99084 C348.441,-14.99084 355.15256,-8.27931 355.15256,0 Z M340.1617,0" stroke-width="0.3985" stroke-miterlimit="10" fill="none" stroke="#bf0040" transform="matrix(1 0 0 -1 15.14321 185.2672)"/>
    <use xlink:href="#g3" transform="matrix(1 0 0 -1 404.18054 75.87306)" fill="#000000"/>
    <use xlink:href="#g4" transform="matrix(1 0 0 -1 404.18054 75.87306)" fill="#000000"/>
    <use xlink:href="#g11" transform="matrix(1 0 0 -1 404.18054 75.87306)" fill="#000000"/>
    <use xlink:href="#g6" transform="matrix(1 0 0 -1 404.18054 75.87306)" fill="#000000"/>
    <use xlink:href="#g8" transform="matrix(1 0 0 -1 404.18054 75.87306)" fill="#000000"/>
    <path d="M8.3996,100.78767 L104.70749,-43.67392" stroke-width="0.3985" stroke-miterlimit="10" fill="none" stroke="#000000" transform="matrix(1 0 0 -1 15.14321 185.2672)"/>
    <path d="M-1.19551,1.59401 C-1.09587,0.99626 0,0.09961 0.29886,0 C0,-0.09961 -1.09587,-0.99626 -1.19551,-1.59401" stroke-width="0.31879" stroke-linecap="round" stroke-linejoin="round" stroke-miterlimit="10" fill="none" stroke="#000000" transform="matrix(0.55467 0.83202 0.83202 -0.55467 119.8507 228.9411)"/>
    <path d="M13.54367,106.61548 L99.3919,63.69115" stroke-width="0.3985" stroke-miterlimit="10" fill="none" stroke="#000000" transform="matrix(1 0 0 -1 15.14321 185.2672)"/>
    <path d="M-1.19551,1.59401 C-1.09587,0.99626 0,0.09961 0.29886,0 C0,-0.09961 -1.09587,-0.99626 -1.19551,-1.59401" stroke-width="0.31879" stroke-linecap="round" stroke-linejoin="round" stroke-miterlimit="10" fill="none" stroke="#000000" transform="matrix(0.89436 0.44717 0.44717 -0.89436 114.5351 121.576035)"/>
    <path d="M13.54367,120.15895 L99.3919,163.08331" stroke-width="0.3985" stroke-miterlimit="10" fill="none" stroke="#000000" transform="matrix(1 0 0 -1 15.14321 185.2672)"/>
    <path d="M-1.19551,1.59401 C-1.09587,0.99626 0,0.09961 0.29886,0 C0,-0.09961 -1.09587,-0.99626 -1.19551,-1.59401" stroke-width="0.31879" stroke-linecap="round" stroke-linejoin="round" stroke-miterlimit="10" fill="none" stroke="#000000" transform="matrix(0.89436 -0.44717 -0.44717 -0.89436 114.5351 22.183893)"/>
    <path d="M13.54367,-6.77171 L99.3919,-49.69608" stroke-width="0.3985" stroke-miterlimit="10" fill="none" stroke="#000000" transform="matrix(1 0 0 -1 15.14321 185.2672)"/>
    <path d="M-1.19551,1.59401 C-1.09587,0.99626 0,0.09961 0.29886,0 C0,-0.09961 -1.09587,-0.99626 -1.19551,-1.59401" stroke-width="0.31879" stroke-linecap="round" stroke-linejoin="round" stroke-miterlimit="10" fill="none" stroke="#000000" transform="matrix(0.89436 0.44717 0.44717 -0.89436 114.5351 234.96326)"/>
    <path d="M13.54367,6.77171 L99.3919,49.69608" stroke-width="0.3985" stroke-miterlimit="10" fill="none" stroke="#000000" transform="matrix(1 0 0 -1 15.14321 185.2672)"/>
    <path d="M-1.19551,1.59401 C-1.09587,0.99626 0,0.09961 0.29886,0 C0,-0.09961 -1.09587,-0.99626 -1.19551,-1.59401" stroke-width="0.31879" stroke-linecap="round" stroke-linejoin="round" stroke-miterlimit="10" fill="none" stroke="#000000" transform="matrix(0.89436 -0.44717 -0.44717 -0.89436 114.5351 135.57114)"/>
    <path d="M8.3996,12.59955 L104.70749,157.06116" stroke-width="0.3985" stroke-miterlimit="10" fill="none" stroke="#000000" transform="matrix(1 0 0 -1 15.14321 185.2672)"/>
    <path d="M-1.19551,1.59401 C-1.09587,0.99626 0,0.09961 0.29886,0 C0,-0.09961 -1.09587,-0.99626 -1.19551,-1.59401" stroke-width="0.31879" stroke-linecap="round" stroke-linejoin="round" stroke-miterlimit="10" fill="none" stroke="#000000" transform="matrix(0.55467 -0.83202 -0.83202 -0.55467 119.8507 28.206055)"/>
    <path d="M128.57732,-56.69362 L211.12607,-56.69362" stroke-width="0.3985" stroke-miterlimit="10" fill="none" stroke="#000000" transform="matrix(1 0 0 -1 15.14321 185.2672)"/>
    <path d="M-1.19551,1.59401 C-1.09587,0.99626 0,0.09961 0.29886,0 C0,-0.09961 -1.09587,-0.99626 -1.19551,-1.59401" stroke-width="0.31879" stroke-linecap="round" stroke-linejoin="round" stroke-miterlimit="10" fill="none" stroke="#000000" transform="matrix(1 0 0 -1 226.26929 241.96082)"/>
    <path d="M124.12825,-45.95256 L215.70938,45.62852" stroke-width="0.3985" stroke-miterlimit="10" fill="none" stroke="#000000" transform="matrix(1 0 0 -1 15.14321 185.2672)"/>
    <path d="M-1.19551,1.59401 C-1.09587,0.99626 0,0.09961 0.29886,0 C0,-0.09961 -1.09587,-0.99626 -1.19551,-1.59401" stroke-width="0.31879" stroke-linecap="round" stroke-linejoin="round" stroke-miterlimit="10" fill="none" stroke="#000000" transform="matrix(0.7071 -0.7071 -0.7071 -0.7071 230.85258 139.63867)"/>
    <path d="M120.17984,-43.10815 L219.77695,156.08553" stroke-width="0.3985" stroke-miterlimit="10" fill="none" stroke="#000000" transform="matrix(1 0 0 -1 15.14321 185.2672)"/>
    <path d="M-1.19551,1.59401 C-1.09587,0.99626 0,0.09961 0.29886,0 C0,-0.09961 -1.09587,-0.99626 -1.19551,-1.59401" stroke-width="0.31879" stroke-linecap="round" stroke-linejoin="round" stroke-miterlimit="10" fill="none" stroke="#000000" transform="matrix(0.44717 -0.89436 -0.89436 -0.44717 234.92014 29.181684)"/>
    <path d="M124.12825,45.95256 L215.70938,-45.62852" stroke-width="0.3985" stroke-miterlimit="10" fill="none" stroke="#000000" transform="matrix(1 0 0 -1 15.14321 185.2672)"/>
    <path d="M-1.19551,1.59401 C-1.09587,0.99626 0,0.09961 0.29886,0 C0,-0.09961 -1.09587,-0.99626 -1.19551,-1.59401" stroke-width="0.31879" stroke-linecap="round" stroke-linejoin="round" stroke-miterlimit="10" fill="none" stroke="#000000" transform="matrix(0.7071 0.7071 0.7071 -0.7071 230.85258 230.89572)"/>
    <path d="M128.57732,56.69362 L211.12607,56.69362" stroke-width="0.3985" stroke-miterlimit="10" fill="none" stroke="#000000" transform="matrix(1 0 0 -1 15.14321 185.2672)"/>
    <path d="M-1.19551,1.59401 C-1.09587,0.99626 0,0.09961 0.29886,0 C0,-0.09961 -1.09587,-0.99626 -1.19551,-1.59401" stroke-width="0.31879" stroke-linecap="round" stroke-linejoin="round" stroke-miterlimit="10" fill="none" stroke="#000000" transform="matrix(1 0 0 -1 226.26929 128.57358)"/>
    <path d="M124.12825,67.43463 L215.70938,159.01576" stroke-width="0.3985" stroke-miterlimit="10" fill="none" stroke="#000000" transform="matrix(1 0 0 -1 15.14321 185.2672)"/>
    <path d="M-1.19551,1.59401 C-1.09587,0.99626 0,0.09961 0.29886,0 C0,-0.09961 -1.09587,-0.99626 -1.19551,-1.59401" stroke-width="0.31879" stroke-linecap="round" stroke-linejoin="round" stroke-miterlimit="10" fill="none" stroke="#000000" transform="matrix(0.7071 -0.7071 -0.7071 -0.7071 230.85258 26.251434)"/>
    <path d="M120.17984,156.49539 L219.77695,-42.69829" stroke-width="0.3985" stroke-miterlimit="10" fill="none" stroke="#000000" transform="matrix(1 0 0 -1 15.14321 185.2672)"/>
    <path d="M-1.19551,1.59401 C-1.09587,0.99626 0,0.09961 0.29886,0 C0,-0.09961 -1.09587,-0.99626 -1.19551,-1.59401" stroke-width="0.31879" stroke-linecap="round" stroke-linejoin="round" stroke-miterlimit="10" fill="none" stroke="#000000" transform="matrix(0.44717 0.89436 0.89436 -0.44717 234.92014 227.96547)"/>
    <path d="M124.12825,159.3398 L215.70938,67.75868" stroke-width="0.3985" stroke-miterlimit="10" fill="none" stroke="#000000" transform="matrix(1 0 0 -1 15.14321 185.2672)"/>
    <path d="M-1.19551,1.59401 C-1.09587,0.99626 0,0.09961 0.29886,0 C0,-0.09961 -1.09587,-0.99626 -1.19551,-1.59401" stroke-width="0.31879" stroke-linecap="round" stroke-linejoin="round" stroke-miterlimit="10" fill="none" stroke="#000000" transform="matrix(0.7071 0.7071 0.7071 -0.7071 230.85258 117.508514)"/>
    <path d="M128.57732,170.08086 L211.12607,170.08086" stroke-width="0.3985" stroke-miterlimit="10" fill="none" stroke="#000000" transform="matrix(1 0 0 -1 15.14321 185.2672)"/>
    <path d="M-1.19551,1.59401 C-1.09587,0.99626 0,0.09961 0.29886,0 C0,-0.09961 -1.09587,-0.99626 -1.19551,-1.59401" stroke-width="0.31879" stroke-linecap="round" stroke-linejoin="round" stroke-miterlimit="10" fill="none" stroke="#000000" transform="matrix(1 0 0 -1 226.26929 15.186334)"/>
    <path d="M235.19998,-44.0552 L331.482,100.36754" stroke-width="0.3985" stroke-miterlimit="10" fill="none" stroke="#000000" transform="matrix(1 0 0 -1 15.14321 185.2672)"/>
    <path d="M-1.19551,1.59401 C-1.09587,0.99626 0,0.09961 0.29886,0 C0,-0.09961 -1.09587,-0.99626 -1.19551,-1.59401" stroke-width="0.31879" stroke-linecap="round" stroke-linejoin="round" stroke-miterlimit="10" fill="none" stroke="#000000" transform="matrix(0.55467 -0.83202 -0.83202 -0.55467 346.62518 84.89967)"/>
    <path d="M240.35994,-49.901 L326.16638,-6.99753" stroke-width="0.3985" stroke-miterlimit="10" fill="none" stroke="#000000" transform="matrix(1 0 0 -1 15.14321 185.2672)"/>
    <path d="M-1.19551,1.59401 C-1.09587,0.99626 0,0.09961 0.29886,0 C0,-0.09961 -1.09587,-0.99626 -1.19551,-1.59401" stroke-width="0.31879" stroke-linecap="round" stroke-linejoin="round" stroke-miterlimit="10" fill="none" stroke="#000000" transform="matrix(0.89436 -0.44717 -0.44717 -0.89436 341.30957 192.26474)"/>
    <path d="M240.35994,63.48622 L326.16638,106.3897" stroke-width="0.3985" stroke-miterlimit="10" fill="none" stroke="#000000" transform="matrix(1 0 0 -1 15.14321 185.2672)"/>
    <path d="M-1.19551,1.59401 C-1.09587,0.99626 0,0.09961 0.29886,0 C0,-0.09961 -1.09587,-0.99626 -1.19551,-1.59401" stroke-width="0.31879" stroke-linecap="round" stroke-linejoin="round" stroke-miterlimit="10" fill="none" stroke="#000000" transform="matrix(0.89436 -0.44717 -0.44717 -0.89436 341.30957 78.87752)"/>
    <path d="M240.35994,49.901 L326.16638,6.99753" stroke-width="0.3985" stroke-miterlimit="10" fill="none" stroke="#000000" transform="matrix(1 0 0 -1 15.14321 185.2672)"/>
    <path d="M-1.19551,1.59401 C-1.09587,0.99626 0,0.09961 0.29886,0 C0,-0.09961 -1.09587,-0.99626 -1.19551,-1.59401" stroke-width="0.31879" stroke-linecap="round" stroke-linejoin="round" stroke-miterlimit="10" fill="none" stroke="#000000" transform="matrix(0.89436 0.44717 0.44717 -0.89436 341.30957 178.26965)"/>
    <path d="M240.35994,163.28824 L326.16638,120.38477" stroke-width="0.3985" stroke-miterlimit="10" fill="none" stroke="#000000" transform="matrix(1 0 0 -1 15.14321 185.2672)"/>
    <path d="M-1.19551,1.59401 C-1.09587,0.99626 0,0.09961 0.29886,0 C0,-0.09961 -1.09587,-0.99626 -1.19551,-1.59401" stroke-width="0.31879" stroke-linecap="round" stroke-linejoin="round" stroke-miterlimit="10" fill="none" stroke="#000000" transform="matrix(0.89436 0.44717 0.44717 -0.89436 341.30957 64.882416)"/>
    <path d="M235.19998,157.44244 L331.482,13.01968" stroke-width="0.3985" stroke-miterlimit="10" fill="none" stroke="#000000" transform="matrix(1 0 0 -1 15.14321 185.2672)"/>
    <path d="M-1.19551,1.59401 C-1.09587,0.99626 0,0.09961 0.29886,0 C0,-0.09961 -1.09587,-0.99626 -1.19551,-1.59401" stroke-width="0.31879" stroke-linecap="round" stroke-linejoin="round" stroke-miterlimit="10" fill="none" stroke="#000000" transform="matrix(0.55467 0.83202 0.83202 -0.55467 346.62518 172.2475)"/>
    <defs id="outline-glyph">
        <path id="g0" d="M-53.52927,-110.25985 C-53.469494,-110.000824 -53.240353,-109.08426 -52.54297,-109.08426 C-52.493153,-109.08426 -52.25405,-109.08426 -52.044834,-109.213776 C-52.323788,-109.26359 -52.52304,-109.51266 -52.52304,-109.751755 C-52.52304,-109.91116 -52.413452,-110.10045 -52.144463,-110.10045 C-51.92528,-110.10045 -51.60648,-109.92112 -51.60648,-109.52262 C-51.60648,-109.00456 -52.194275,-108.86508 -52.533005,-108.86508 C-53.110836,-108.86508 -53.45953,-109.393105 -53.579082,-109.622246 C-53.828148,-108.96471 -54.36613,-108.86508 -54.65505,-108.86508 C-55.691162,-108.86508 -56.259033,-110.15026 -56.259033,-110.39933 C-56.259033,-110.498955 -56.159405,-110.498955 -56.13948,-110.498955 C-56.05978,-110.498955 -56.029892,-110.479034 -56.009964,-110.389366 C-55.671234,-109.33333 -55.013702,-109.08426 -54.674973,-109.08426 C-54.485683,-109.08426 -54.13699,-109.17393 -54.13699,-109.751755 C-54.13699,-110.0606 -54.306355,-110.728096 -54.674973,-112.12286 C-54.834373,-112.74055 -55.183067,-113.15898 -55.62142,-113.15898 C-55.6812,-113.15898 -55.91034,-113.15898 -56.119556,-113.029465 C-55.870487,-112.97965 -55.65131,-112.77044 -55.65131,-112.491486 C-55.65131,-112.222496 -55.870487,-112.14279 -56.019928,-112.14279 C-56.318806,-112.14279 -56.567875,-112.40182 -56.567875,-112.72063 C-56.567875,-113.17891 -56.06974,-113.37816 -55.631386,-113.37816 C-54.97385,-113.37816 -54.615196,-112.68077 -54.585308,-112.621 C-54.465755,-112.98962 -54.1071,-113.37816 -53.509342,-113.37816 C-52.483192,-113.37816 -51.91532,-112.09298 -51.91532,-111.84391 C-51.91532,-111.744286 -52.004986,-111.744286 -52.034874,-111.744286 C-52.124535,-111.744286 -52.144463,-111.784134 -52.164387,-111.853874 C-52.493153,-112.919876 -53.170612,-113.15898 -53.489418,-113.15898 C-53.87796,-113.15898 -54.03736,-112.84018 -54.03736,-112.50145 C-54.03736,-112.28227 -53.97759,-112.06309 -53.867996,-111.62473 Z"/>
        <path id="g1" d="M-48.826622,-110.32758 C-48.826622,-110.13929 -48.84057,-110.13232 -49.035835,-110.13232 C-49.482162,-110.57167 -50.116783,-110.57864 -50.40271,-110.57864 L-50.40271,-110.8297 C-50.23534,-110.8297 -49.775063,-110.8297 -49.391502,-110.63443 L-49.391502,-114.19109 C-49.391502,-114.421234 -49.391502,-114.511894 -50.088886,-114.511894 L-50.353893,-114.511894 L-50.353893,-114.76295 C-50.228363,-114.755974 -49.370583,-114.735054 -49.11255,-114.735054 C-48.89636,-114.735054 -48.017654,-114.755974 -47.86423,-114.76295 L-47.86423,-114.511894 L-48.129234,-114.511894 C-48.826622,-114.511894 -48.826622,-114.421234 -48.826622,-114.19109 Z"/>
        <path id="g2" d="M-47.641068,-113.49371 L-47.878178,-113.49371 C-47.899097,-113.64713 -47.968838,-114.05859 -48.059498,-114.12833 C-48.115288,-114.17017 -48.652275,-114.17017 -48.74991,-114.17017 L-50.033096,-114.17017 C-49.300842,-113.52161 -49.05676,-113.32634 -48.63833,-112.998566 C-48.12226,-112.58711 -47.641068,-112.15473 -47.641068,-111.49222 C-47.641068,-110.64838 -48.380295,-110.13232 -49.272945,-110.13232 C-50.137703,-110.13232 -50.723507,-110.73904 -50.723507,-111.38063 C-50.723507,-111.7363 -50.423634,-111.77117 -50.353893,-111.77117 C-50.18652,-111.77117 -49.98428,-111.65261 -49.98428,-111.40156 C-49.98428,-111.276024 -50.033096,-111.031944 -50.395737,-111.031944 C-50.179546,-110.5368 -49.705326,-110.38338 -49.377556,-110.38338 C-48.680172,-110.38338 -48.31753,-110.92733 -48.31753,-111.49222 C-48.31753,-112.09894 -48.74991,-112.58014 -48.973072,-112.83119 L-50.65377,-114.49097 C-50.723507,-114.553734 -50.723507,-114.56768 -50.723507,-114.76295 L-47.85028,-114.76295 Z"/>
        <path id="g3" d="M-53.140724,-109.50269 C-53.320053,-109.13407 -53.60897,-108.86508 -54.05729,-108.86508 C-55.222916,-108.86508 -56.458286,-110.32959 -56.458286,-111.784134 C-56.458286,-112.72063 -55.91034,-113.37816 -55.133255,-113.37816 C-54.934002,-113.37816 -54.435867,-113.33831 -53.83811,-112.63096 C-53.758408,-113.04939 -53.409718,-113.37816 -52.93151,-113.37816 C-52.582817,-113.37816 -52.353676,-113.14902 -52.194275,-112.830215 C-52.02491,-112.47156 -51.895397,-111.86384 -51.895397,-111.84391 C-51.895397,-111.744286 -51.985058,-111.744286 -52.014946,-111.744286 C-52.114574,-111.744286 -52.124535,-111.784134 -52.154423,-111.923615 C-52.323788,-112.57118 -52.503117,-113.15898 -52.911583,-113.15898 C-53.180576,-113.15898 -53.210464,-112.899956 -53.210464,-112.7007 C-53.210464,-112.48152 -53.19054,-112.40182 -53.080948,-111.96346 C-52.97136,-111.54504 -52.951435,-111.445404 -52.86177,-111.066826 L-52.503117,-109.67206 C-52.433376,-109.393105 -52.433376,-109.37318 -52.433376,-109.33333 C-52.433376,-109.16396 -52.55293,-109.06434 -52.722294,-109.06434 C-52.9614,-109.06434 -53.110836,-109.283516 -53.140724,-109.50269 Z M-53.788296,-112.083015 C-53.83811,-112.262344 -53.83811,-112.28227 -53.98755,-112.45164 C-54.425907,-112.99958 -54.834373,-113.15898 -55.113327,-113.15898 C-55.61146,-113.15898 -55.75094,-112.61104 -55.75094,-112.222496 C-55.75094,-111.72436 -55.432133,-110.498955 -55.20299,-110.04067 C-54.89415,-109.45288 -54.44583,-109.08426 -54.047325,-109.08426 C-53.399754,-109.08426 -53.260277,-109.9012 -53.260277,-109.960976 C-53.260277,-110.02075 -53.2802,-110.08053 -53.290165,-110.13034 Z"/>
        <path id="g4" d="M-49.114914,-102.86317 C-50.439945,-103.79766 -50.78864,-105.276115 -50.78864,-106.34312 C-50.78864,-107.32642 -50.495735,-108.8537 -49.114914,-109.83004 C-49.059124,-109.83004 -48.975437,-109.83004 -48.975437,-109.74635 C-48.975437,-109.704506 -48.996357,-109.69056 -49.045174,-109.64175 C-49.9727,-108.804886 -50.314415,-107.61933 -50.314415,-106.35009 C-50.314415,-104.46715 -49.59611,-103.5466 -49.024254,-103.03053 C-48.996357,-103.00264 -48.975437,-102.98172 -48.975437,-102.94685 C-48.975437,-102.86317 -49.059124,-102.86317 -49.114914,-102.86317 Z"/>
        <path id="g5" d="M-44.9585,-106.82431 L-45.19561,-106.82431 C-45.216534,-106.97774 -45.28627,-107.38919 -45.37693,-107.45893 C-45.432724,-107.50077 -45.969707,-107.50077 -46.06734,-107.50077 L-47.35053,-107.50077 C-46.618275,-106.8522 -46.37419,-106.65694 -45.95576,-106.32917 C-45.439697,-105.91771 -44.9585,-105.48533 -44.9585,-104.822815 C-44.9585,-103.97898 -45.697727,-103.46291 -46.59038,-103.46291 C-47.45514,-103.46291 -48.040943,-104.06964 -48.040943,-104.711235 C-48.040943,-105.0669 -47.741066,-105.10177 -47.671326,-105.10177 C-47.503956,-105.10177 -47.301712,-104.983215 -47.301712,-104.732155 C-47.301712,-104.60663 -47.35053,-104.36254 -47.71317,-104.36254 C-47.496983,-103.8674 -47.02276,-103.713974 -46.69499,-103.713974 C-45.997604,-103.713974 -45.634964,-104.257935 -45.634964,-104.822815 C-45.634964,-105.42954 -46.06734,-105.910736 -46.290504,-106.1618 L-47.971203,-107.82157 C-48.040943,-107.88433 -48.040943,-107.898285 -48.040943,-108.09355 L-45.167717,-108.09355 Z"/>
        <path id="g6" d="M-43.88453,-102.86317 C-43.933346,-102.86317 -44.017033,-102.86317 -44.017033,-102.94685 C-44.017033,-102.98172 -43.99611,-103.00264 -43.954266,-103.05146 C-43.354515,-103.602394 -42.685028,-104.54386 -42.685028,-106.34312 C-42.685028,-107.80065 -43.138325,-108.90252 -43.891502,-109.58595 C-44.010056,-109.704506 -44.017033,-109.71148 -44.017033,-109.74635 C-44.017033,-109.78122 -43.99611,-109.83004 -43.926373,-109.83004 C-43.842686,-109.83004 -43.18017,-109.36977 -42.719894,-108.49803 C-42.413048,-107.919205 -42.210804,-107.16603 -42.210804,-106.35009 C-42.210804,-105.366776 -42.503708,-103.8395 -43.88453,-102.86317 Z"/>
        <path id="g7" d="M-49.68677,-113.59593 C-49.14281,-113.59593 -48.752274,-113.97252 -48.752274,-114.71873 C-48.752274,-115.58348 -49.25439,-115.841515 -49.658875,-115.841515 C-49.937828,-115.841515 -50.551525,-115.7648 -50.84443,-115.35335 C-50.51666,-115.33939 -50.439945,-115.10926 -50.439945,-114.96281 C-50.439945,-114.73965 -50.60732,-114.57925 -50.823505,-114.57925 C-51.018776,-114.57925 -51.214043,-114.6978 -51.214043,-114.983734 C-51.214043,-115.639275 -50.48876,-116.064674 -49.644928,-116.064674 C-48.67556,-116.064674 -48.006073,-115.41611 -48.006073,-114.71873 C-48.006073,-114.17477 -48.4524,-113.630806 -49.21952,-113.470406 C-48.487267,-113.2054 -48.222263,-112.68236 -48.222263,-112.25696 C-48.222263,-111.706024 -48.85688,-111.29456 -49.630978,-111.29456 C-50.405075,-111.29456 -50.997852,-111.67115 -50.997852,-112.22906 C-50.997852,-112.46617 -50.84443,-112.59867 -50.635212,-112.59867 C-50.419025,-112.59867 -50.279545,-112.43828 -50.279545,-112.24301 C-50.279545,-112.040764 -50.419025,-111.89432 -50.635212,-111.88037 C-50.39113,-111.57352 -49.90993,-111.4968 -49.6519,-111.4968 C-49.338078,-111.4968 -48.898724,-111.65023 -48.898724,-112.25696 C-48.898724,-112.54986 -48.996357,-112.87065 -49.177677,-113.086845 C-49.407814,-113.35185 -49.603085,-113.3658 -49.951775,-113.38672 C-50.12612,-113.400665 -50.140068,-113.400665 -50.17494,-113.40764 C-50.188885,-113.40764 -50.24468,-113.421585 -50.24468,-113.4983 C-50.24468,-113.59593 -50.18191,-113.59593 -50.06336,-113.59593 Z"/>
        <path id="g8" d="M-48.068836,-114.65596 L-48.305946,-114.65596 C-48.32687,-114.80939 -48.396606,-115.22084 -48.487267,-115.29058 C-48.54306,-115.33242 -49.080044,-115.33242 -49.177677,-115.33242 L-50.460865,-115.33242 C-49.72861,-114.68385 -49.484528,-114.48859 -49.066097,-114.16082 C-48.550034,-113.74936 -48.068836,-113.31698 -48.068836,-112.654465 C-48.068836,-111.81063 -48.808064,-111.29456 -49.700718,-111.29456 C-50.565475,-111.29456 -51.15128,-111.90129 -51.15128,-112.542885 C-51.15128,-112.89855 -50.851402,-112.93342 -50.781662,-112.93342 C-50.614292,-112.93342 -50.41205,-112.814865 -50.41205,-112.563805 C-50.41205,-112.43828 -50.460865,-112.19419 -50.823505,-112.19419 C-50.60732,-111.69905 -50.133095,-111.54562 -49.805325,-111.54562 C-49.10794,-111.54562 -48.7453,-112.089584 -48.7453,-112.654465 C-48.7453,-113.26119 -49.177677,-113.742386 -49.40084,-113.99345 L-51.08154,-115.65322 C-51.15128,-115.71599 -51.15128,-115.729935 -51.15128,-115.9252 L-48.278053,-115.9252 Z"/>
        <path id="g9" d="M-49.25439,-111.48983 C-49.25439,-111.30154 -49.268337,-111.29456 -49.463608,-111.29456 C-49.90993,-111.73392 -50.54455,-111.74089 -50.830482,-111.74089 L-50.830482,-111.99195 C-50.66311,-111.99195 -50.202835,-111.99195 -49.81927,-111.796684 L-49.81927,-115.35335 C-49.81927,-115.58348 -49.81927,-115.67414 -50.51666,-115.67414 L-50.781662,-115.67414 L-50.781662,-115.9252 C-50.656136,-115.91823 -49.79835,-115.89731 -49.540318,-115.89731 C-49.32413,-115.89731 -48.445423,-115.91823 -48.292,-115.9252 L-48.292,-115.67414 L-48.557007,-115.67414 C-49.25439,-115.67414 -49.25439,-115.58348 -49.25439,-115.35335 Z"/>
        <path id="g10" d="M-46.576435,-105.76428 C-46.032475,-105.76428 -45.641937,-106.14087 -45.641937,-106.88708 C-45.641937,-107.75183 -46.144054,-108.009865 -46.54854,-108.009865 C-46.82749,-108.009865 -47.44119,-107.93315 -47.734093,-107.5217 C-47.406322,-107.507744 -47.32961,-107.27761 -47.32961,-107.13116 C-47.32961,-106.908 -47.496983,-106.7476 -47.71317,-106.7476 C-47.90844,-106.7476 -48.103706,-106.86615 -48.103706,-107.152084 C-48.103706,-107.807625 -47.378426,-108.233025 -46.53459,-108.233025 C-45.565224,-108.233025 -44.895737,-107.58446 -44.895737,-106.88708 C-44.895737,-106.34312 -45.342064,-105.79916 -46.109184,-105.638756 C-45.37693,-105.37375 -45.111927,-104.85071 -45.111927,-104.42531 C-45.111927,-103.874374 -45.746544,-103.46291 -46.52064,-103.46291 C-47.29474,-103.46291 -47.887516,-103.8395 -47.887516,-104.39741 C-47.887516,-104.63452 -47.734093,-104.76702 -47.524876,-104.76702 C-47.30869,-104.76702 -47.16921,-104.60663 -47.16921,-104.41136 C-47.16921,-104.209114 -47.30869,-104.06267 -47.524876,-104.04872 C-47.280792,-103.74187 -46.799595,-103.66515 -46.541565,-103.66515 C-46.22774,-103.66515 -45.788387,-103.81858 -45.788387,-104.42531 C-45.788387,-104.71821 -45.88602,-105.039 -46.06734,-105.255196 C-46.297478,-105.5202 -46.49275,-105.53415 -46.84144,-105.55507 C-47.015785,-105.569016 -47.02973,-105.569016 -47.0646,-105.57599 C-47.07855,-105.57599 -47.134342,-105.589935 -47.134342,-105.66665 C-47.134342,-105.76428 -47.071575,-105.76428 -46.953022,-105.76428 Z"/>
        <path id="g11" d="M-44.79113,-106.94984 L-44.79113,-106.698784 L-45.565224,-106.698784 L-45.565224,-103.58845 C-45.565224,-103.44199 -45.565224,-103.39317 -45.71865,-103.39317 C-45.802338,-103.39317 -45.83023,-103.39317 -45.89997,-103.490814 L-48.208313,-106.698784 L-48.208313,-106.94984 L-46.158,-106.94984 L-46.158,-107.5217 C-46.158,-107.758804 -46.158,-107.84249 -46.722885,-107.84249 L-46.91118,-107.84249 L-46.91118,-108.09355 C-46.562485,-108.079605 -46.116158,-108.06565 -45.8651,-108.06565 C-45.607067,-108.06565 -45.160744,-108.079605 -44.81205,-108.09355 L-44.81205,-107.84249 L-45.000343,-107.84249 C-45.565224,-107.84249 -45.565224,-107.758804 -45.565224,-107.5217 L-45.565224,-106.94984 Z M-46.109184,-104.146355 L-46.109184,-106.698784 L-47.950283,-106.698784 Z"/>
    </defs>
</svg>
